<svg height="512pt" viewBox="0 -9 512.00012 512" width="512pt" xmlns="http://www.w3.org/2000/svg"><path d="m155.429688 353.984375v-40.089844l-25.015626 20.039063zm0 0"/><path d="m95.085938 337.371094c.558593.371094 1.292968.351562 1.828124-.054688l58.515626-46.847656v-15.726562h-138.542969zm0 0"/><path d="m256 411.429688h18.285156v82.285156h-18.285156zm0 0"/><path d="m86.855469 128c-37.851563.039062-68.53125 30.71875-68.570313 68.570312v59.886719h137.144532v-59.886719c0-37.871093-30.703126-68.570312-68.574219-68.570312zm0 0"/><path d="m108.324219 351.625c-3.519531 2.773438-7.871094 4.285156-12.351563 4.296875-4.425781.003906-8.722656-1.484375-12.195312-4.222656l-7.5-6-59.363282 47.445312h138.515626v-15.726562l-39.644532-31.773438zm0 0"/><path d="m0 284.644531v98.597657l61.640625-49.253907zm0 0"/><path d="m305.601562 35.65625c-3.632812-4.882812-3.632812-11.570312 0-16.457031l14.398438-19.199219h-54.855469v54.855469h54.855469zm0 0"/><path d="m246.855469 147.585938v-147.585938h-18.285157v147.585938c5.972657-1.734376 12.316407-1.734376 18.285157 0zm0 0"/><path d="m256 182.855469c0 10.101562-8.1875 18.289062-18.285156 18.289062s-18.285156-8.1875-18.285156-18.289062c0-10.097657 8.1875-18.285157 18.285156-18.285157s18.285156 8.1875 18.285156 18.285157zm0 0"/><path d="m491.886719 148.113281c-12.820313-12.90625-30.269531-20.148437-48.457031-20.113281h-178.285157v30.921875c12.964844 14.703125 12.03125 37.015625-2.117187 50.582031-14.148438 13.570313-36.480469 13.570313-50.628906 0-14.148438-13.566406-15.078126-35.878906-2.113282-50.582031v-30.921875h-70.234375c2.886719 2.214844 5.636719 4.605469 8.226563 7.160156 14.917968 14.863282 23.871094 34.679688 25.171875 55.695313.113281.375.199219.757812.265625 1.144531-.035156.242188-.085938.480469-.148438.714844.066406 1.289062.195313 2.558594.195313 3.855468v196.574219h329.09375c5.050781 0 9.144531-4.09375 9.144531-9.144531v-187.429688c.035156-18.1875-7.207031-35.636718-20.113281-48.457031zm-217.601563 208.457031c0 5.050782-4.09375 9.144532-9.140625 9.144532-5.050781 0-9.144531-4.09375-9.144531-9.144532v-67.65625l-5.484375 16.605469c-.136719.410157-.300781.808594-.496094 1.195313-2.320312 4.652344-7.070312 7.589844-12.269531 7.589844-5.195312 0-9.945312-2.9375-12.269531-7.589844-.191407-.386719-.355469-.785156-.492188-1.195313l-5.558593-16.605469v67.65625c0 5.050782-4.09375 9.144532-9.144532 9.144532-5.050781 0-9.140625-4.09375-9.140625-9.144532v-96c0-6.359374 4.375-11.886718 10.566407-13.347656 6.191406-1.457031 12.574218 1.53125 15.414062 7.222656.195312.386719.359375.789063.496094 1.199219l10.09375 30.351563 10.054687-30.34375c.136719-.410156.304688-.808594.496094-1.199219 2.820313-5.730469 9.222656-8.757813 15.445313-7.296875 6.21875 1.460938 10.605468 7.027344 10.574218 13.414062zm173.714844-201.140624h9.144531c5.046875 0 9.140625 4.09375 9.140625 9.140624 0 5.050782-4.09375 9.144532-9.140625 9.144532h-9.144531c-5.050781 0-9.144531-4.09375-9.144531-9.144532 0-5.046874 4.09375-9.140624 9.144531-9.140624zm-98.46875 210.039062c-.6875.160156-1.394531.242188-2.101562.246094-4.238282-.003906-7.914063-2.917969-8.886719-7.039063l-7.003907-29.53125h-23.078124l-6.992188 29.53125c-1.242188 4.824219-6.113281 7.769531-10.960938 6.621094-4.847656-1.144531-7.882812-5.960937-6.832031-10.828125l23.011719-97.207031c1.527344-6.03125 6.921875-10.28125 13.144531-10.351563 6.222657-.070312 11.710938 4.0625 13.371094 10.058594l23.121094 97.5c1.160156 4.914062-1.878907 9.835938-6.792969 11zm61.898438-18.039062c5.046874 0 9.140624 4.09375 9.140624 9.140624 0 5.050782-4.09375 9.144532-9.140624 9.144532h-36.574219c-5.046875 0-9.140625-4.09375-9.140625-9.144532 0-5.046874 4.09375-9.140624 9.140625-9.140624h9.144531v-82.285157h-9.144531c-5.046875 0-9.140625-4.09375-9.140625-9.144531s4.09375-9.144531 9.140625-9.144531h36.574219c5.046874 0 9.140624 4.09375 9.140624 9.144531s-4.09375 9.144531-9.140624 9.144531h-9.144532v82.285157zm0-173.714844h-100.574219c-5.046875 0-9.140625-4.09375-9.140625-9.144532 0-5.046874 4.09375-9.140624 9.140625-9.140624h100.574219c5.046874 0 9.140624 4.09375 9.140624 9.140624 0 5.050782-4.09375 9.144532-9.140624 9.144532zm64 192h-36.574219c-5.046875 0-9.140625-4.09375-9.140625-9.144532v-100.570312c0-5.050781 4.09375-9.144531 9.140625-9.144531 5.050781 0 9.144531 4.09375 9.144531 9.144531v91.429688h27.429688c5.046874 0 9.140624 4.09375 9.140624 9.140624 0 5.050782-4.09375 9.144532-9.140624 9.144532zm0 0"/><path d="m312.796875 310.855469h14.40625l-7.203125-30.445313zm0 0"/><path d="m292.570312 411.429688h36.582032v82.285156h-36.582032zm0 0"/></svg>