<?xml version="1.0" encoding="UTF-8"?>
<svg version="1.1" viewBox="0 0 900 900" xmlns="http://www.w3.org/2000/svg">
 <g transform="translate(0 -152.36)">
  <path d="m617.18 202.24-11.723 8.8398c-6.3061 4.7555-15.564 0.44107-23.268 1.1504-18.276 1.6829-40.249-0.76571-59.789 13.09-7.3656 5.2228-13.048 12.544-20.016 18.285-12.154 10.015-18.892 24.858-22.271 39.939-2.3205 10.356-1.9568 20.992-0.0566 31.363 1.6842 9.192 6.7247 19.549 1.7051 28.215-4.0644 7.017-8.0726 14.055-10.096 21.859-1.6223 6.2583-3.788 12.695-8.5996 17.164-6.2487 5.8041-10.877 12.951-16.254 19.488-21.58 26.2-36.204 52.85-30.75 89.73 2.2464 9.673 9.0356 17.145 16.561 23.209 9.2664 7.4674 21.358 9.1411 32.846 8.4726 6.6111-0.38469 14.403-4.6108 19.957-0.125 5.3882 4.3519 1.0816 12.518 1.3789 18.662 0.49685 10.269-8.0965 19.348-17.627 20.578-11.865 1.5312-23.932 0.88266-35.863 0.16015-7.7302-0.46809-16.051 2.9694-23.098-1.0605-4.783-2.7353-4.632-9.489-4.1562-14.461 0.44732-4.6748 0.79955-9.9517-3.8516-13.037-5.4713-3.6295-11.977 2.9598-16.643-1.6504-4.6039-4.5496-2.1883-11.362-1.916-16.996 0.30607-6.3339-6.0453-9.2074-11.713-8.1758-6.2719 1.1416-14.983 2.0814-15.672 9.6387-0.439 4.8154-3.1112 16.114-9.0703 10.838-5.0758-4.4938-0.57894-12.384-3.5996-18.045-4.0777-7.6424-16.624-5.6105-19.357 1.7539-2.1182 5.7062 1.9814 14.714-5.1523 18-4.8407 2.2298-10.616 1.0129-15.822 0.46875-19.144-2.0009-38.439-3.0318-57.686-1.0312-7.1304 0.74117-8.8076 8.1624-10.129 14.141-2.3747 10.744-5.9602 21.161-7.8125 31.994-26.043 159.58-86.423 360.16 127.52 419.4 17.056 1.5602 33.903 4.7394 50.938 6.4024 75.613 6.471 166.92-3.4382 211.9 3.1035 44.979 6.5417 52.937 5.6245 60.83 4.8223 6.4293-0.6535 14.13 2.0295 19.266-2.5215 4.8904-4.3341 0.62013-9.8084 1.4394-15.57 0.97959-6.8891 0.23326-13.773-1.668-20.434-1.6751-5.8689-4.461-12.543-10.689-14.291-13.52-3.7938-26.69-8.7529-39.105-15.424-10.271-15.756-23.598-16.509-35.387-23.508-5.6517-6.4909-13.73-11.544-16.357-20.047-2.4286-7.8603 3.6941-14.8 6.6602-21.691 2.9594-6.8754-2.4012-14.214 0.33008-20.754 6.2323-14.923 22.911-9.3007 27.617-42.932 5.9903-42.811-48.446-87.382-40.67-97.818 5.3508-3.7319 13.067-4.6196 16.457-10.721 3.2684-5.8816-2.3649-11.731-1.748-17.662 0.69783-6.7099 8.9099-9.5427 14.426-11.793 19.291-6.2151 25.238-29.811 9.0117-43.443-7.351-4.9285-16.956 0.74237-23.877-4.1699-9.531-6.7651-15.495-18.098-17.455-29.66-1.269-7.4872-2.0156-17.346 4.7266-22.238 6.7731-4.9152 19.341-4.8448 25.684-10.791 7.7035-7.2221 6.7998-18.478 8.1035-28.188 0.86542-6.4452 0.10916-13.132-4.5176-17.918-7.667-7.9304-21.744-11.77-28.025-20.957-4.4138-6.456 5.1776-14.109 2.1152-20.791-3.7308-8.1409-10.431-20.377-3.2871-26.412 5.2026-4.3948 6.1275-9.4738 3.4316-17.508-1.9299-5.7513 9.2127-5.7066 14.275-5.25 71.659-9.8361 81.004-57.897 73.459-90.012-2.8148-8.5315-2.1502-17.961 2.4121-25.432 19.928-33.44 17.941-67.592-14.924-99.75-15.334-15.004-37.08-20.427-53.352-8.5zm-45.412 25.85c4.1192 0.0515 8.2206 0.54176 12.23 1.6172 5.8884 1.5792 7.8836 8.8817 5.2324 13.945-2.749 5.2503-9.169 5.6988-14.277 6.5293-26.003 4.1727-42.784 21.142-40.875 48.656 1.3995 13.927 5.4667 28.512 15.246 38.85 13.262 14.019 31.459 23.168 50.537 26.754 19.83 3.7278 40.41-12.382 41.43-32.312 0.27741-5.4242 0.13533-13.121 6.0898-15.23 4.8801-1.729 10.978-1.046 15.354 2.0371 4.7686 3.3599 4.0773 10.05 5.0742 15.184 2.0013 10.306 0.41672 21.195-4.2891 30.434-3.4004 6.6756-8.0239 13.544-14.828 17.104-13.737 7.1858-33.801 19.595-68.594 6.9902-28.233-10.208-46.56-25.004-60.607-54.811-4.7933-9.0722-5.8029-19.225-8.0723-28.984-3.6682-15.775 1.0432-31.881 6.7852-46.525 5.5222-14.084 18.762-23.903 33.17-27.527 6.615-1.6642 13.529-2.7949 20.395-2.709zm33.586 16.201c0.69039-0.0743 1.2266 0.81115 1.3848 3.1856 0.52816 7.9311 7.4081 14.483 4.3906 22.27-0.71293 1.8396-3.6173 2.1557-5.1094 1.0723-5.4853-3.9829-6.0006-11.737-5.0547-17.719 0.60618-3.8336 2.8698-8.6451 4.3887-8.8086zm-27.672 14.506c5.8422-0.2013 8.9347 6.6604 3.9746 10.84-5.6992 4.8023-14.482 2.6646-19.109 8.4785-10.51 14.065-0.63677 43.702 15.139 55.658 12.967 8.4647 20.625 15.355 3.4434 12.744-21.74-3.3041-56.443-60.652-19.109-81.121 4.6955-2.3932 9.1439-5.4415 14.459-6.4609 0.41235-0.0791 0.81365-0.12526 1.2031-0.13868zm-77.711 5.4062c2.4538-0.25083 3.1034 6.8374 2.3594 10.449-8.3551 40.557 11.155 84.006 42.879 110.82 7.2756 6.1505 17.114 8.4354 23.221 15.727 0.538 0.64236-0.92887 1.5117-1.7207 1.5449-5.8058 0.24318-11.17-2.8347-16.701-4.2988-5.9315-1.57-10.465-6.1595-15.578-9.3398-27.098-17.383-43.781-63.971-43.143-99.498 1.3434-7.8708 1.639-16.456 6.1894-23.234 0.97894-1.4581 1.8071-2.1036 2.4941-2.1738zm117.15 13.381c5.8948 0.16721 11.248 7.6649 11.723 13.932 0.41731 5.5056-6.6875 1.5846-8.0586-1.4082-1.7886-3.9043-11.803-11.465-4.8496-12.457 0.39652-0.0566 0.79256-0.0776 1.1856-0.0664zm11.59 46.227c1.9669-0.0997 3.4754 1.0166 3.3418 3.9726-0.35981 7.9634-2.4733 17.111-9.1602 22.213-3.8837 2.9633-9.3612 1.9903-14.164 2.584-6.2334 0.7705-9.4221-9.671-2.291-9.4844 6.9351 0.18146 13.589-5.2849 14.111-11.561 0.33411-4.0164 4.884-7.5584 8.1621-7.7246zm-136 32.332c1.3119-0.0269 2.5827 0.66582 3.5801 2.3809 3.7121 6.383-2.9315 13.645-2.9141 20.598 5e-3 2.1728-1.1105 5.5038-3.457 4.6973-6.2195-2.1378-2.3724-11.159-3.9375-16.168-1.5216-4.8694 2.7928-11.427 6.7285-11.508zm16.576 34.918c3.5762 0.14898 7.2168 2.0873 7.0391 5.4766-0.31632 6.0334-13.005 5.7835-13.693-0.21485-0.43291-3.7703 3.0781-5.4107 6.6543-5.2617zm-28.035 15.402c10.308-0.11804 19.991 7.4158 30.486 7.1309 5.3644-0.14565 11.601 2.8009 11.893 8.3672 0.6087 11.614 3.4717 23.912-0.88281 34.984-4.9477 12.581-16.119 21.441-27.074 29.445-5.2113 3.8078-10.396 7.4917-16.648 8.707-3.9731 0.7723-7.897 1.7937-11.951 2.0801-8.4984 0.60028-18.279-4.3648-19.512-13.008-2.994-20.998-4.4241-29.274 11.848-58.996 4.3422-7.9316 9.0246-16.064 17.383-18.146 1.5022-0.37428 2.9865-0.54759 4.459-0.56445zm65.691 3.5254c0.90255-0.0176 1.8817 0.23 2.9375 0.80859 6.1963 3.3957 14.406 3.1422 18.662 8.7422 3.6862 4.8506 1.9047 11.892 1.4219 17.816-0.62266 7.6393 3.433 14.568 1.0391 22.531-1.6336 5.434-8.7806 5.9627-10.381 1.4414-2.0022-5.6569 1.1322-11.659 0.46485-17.58-0.72001-6.3885-7.4013-8.0733-12.725-6.9219-7.7812 1.6831-9.6938-7.194-9.2715-13.656 0.34349-5.2559 2.9778-13.087 7.8516-13.182zm5.9941 70.041c7.6669 0.10778 9.7088 12.067 4.4707 17.311-1.991 1.9928-4.9667 3.1186-7.5508 1.9141-8.1961-3.8204-5.8565-19.35 3.0801-19.225zm23.027 3.4941c0.41925 0.0339 0.87676 0.20054 1.3672 0.52734 2.7011 1.7999 2.2072 8.2826-1.125 9.4434-4.9124 1.7111-4.2949-10.299-0.24219-9.9707zm-50.029 17.41c2.6182-0.13611 4.7817 0.86297 4.3398 3.7148-1.1477 7.4081-7.9494 12.877-13.822 17.379-5.0849 3.898-6.6022 10.297-5.5664 16.365 1.0085 5.9082 2.256 13.861-3.1348 17.916-3.9752 2.9904-9.7584-1.2993-10.908-5.5762-2.564-9.5374 4.195-18.21 7.373-26.84 1.4624-3.9711 2.802-8.0857 5.9336-11.105 2.9905-2.8837 6.0972-5.5289 8.7168-8.752 1.3766-1.6938 4.4502-2.9654 7.0684-3.1016zm23.576 10.119c4.2957 0.0159 8.7653 0.70826 12.934 0.82422 6.265 0.17429 11.936 10.219 4.7324 12.137-7.1273 1.8976-14.673 1.2331-22.031 2.0176-6.2721 0.66867-12.859-7.7656-7.5215-11.746 3.4693-2.5874 7.591-3.2484 11.887-3.2324zm39.307 0.51368c4.6679 0.15812 9.9468 6.1232 8.1836 11.184-0.19733 0.56634-0.64836 1.056-1.1797 1.332-6.2292 3.2363-16.02-7.2894-10.045-11.615 0.91794-0.66458 1.9638-0.93689 3.041-0.90039zm-219.8 9.6602c0.87751-0.047 1.6458 0.63898 1.9141 2.582 0.20951 1.5173-0.7687 3.1635-2.2891 3.3945-5.8812 0.89379-2.2576-5.8354 0.375-5.9766zm232.41 12.277c1.1155-0.0396 2.2979 0.48954 3.5 1.8047 4.485 4.9069 5.3138 14.929-0.47852 19.438 0 0-0.40432 0.33833-0.62304 0.48438-0.21749 0.14523-0.68164 0.38672-0.68164 0.38672-5.8487 3.3186-8.7832-4.487-8.8008-9.8945-0.0153-4.6874 3.1-12.077 7.084-12.219zm-70.24 1.3945c4.4192-0.11521 9.3807 2.2466 13.902 2.6992 11.441 1.1451 23.459-1.3832 34.359 2.4727 6.3862 2.2589 8.0389 11.872 5.0938 17.318-3.2919 6.0871-12.04 3.9099-18.189 4.4785-9.5124 0.87947-19.076 1.1589-28.635 1.2363-6.1984 0.0502-15.201 0.67571-17.637-6.002-2.7181-7.4522 0.50088-17.447 6.9023-21.1 1.3158-0.75087 2.73-1.0651 4.2031-1.1035zm-212.38 17.318c0.95 0.0382 1.8809 0.78892 2.5449 2.6855 0.68579 1.9587-0.49897 3.8838-2.248 4.3145-7.3338 1.8056-3.6897-7.1365-0.29687-7zm-51.049 0.46289c9.6505-0.11457 24.395 6.6768 31.695 7.1719 2.4606 5.9333 12.779 17.821 6.4609 65.547-5.573 42.099-11.304 90.407-14.24 136.57-0.72773 6.6939-3.3786 14.501-10.148 16.506-6.8104 2.0173-15.087 3.589-18.541 10.23-9.8184 19.352-9.9636 46.234 13.506 58.285 7.2702 6.5044 8.9411 17.239 15.83 24.252 8.0338 7.731 42.425 11.506 57.58 12.082 13.307-0.95464 27.398-1.3946 39.287-8.3125 5.7509-3.3463 10.241-8.4262 12.746-14.516 2.4351-5.9194 8.3001-8.8811 12.971-12.705 11.145-9.1247 20.99-21.602 22.41-36.531 1.0035-10.545-6.7581-18.761-13.83-25.541-6.0454-5.7961-16.251-8.7883-17.932-17.516-8.4947-47.95-4.6255-100.71-9.8027-152.31 0.3746-9.5964 6.3914-19.669 14.951-21.459 25.905-5.4158 52.865 0.19899 79.156 2.8691 5.1587 0.52392 14.166 1.9311 12.941 8.3047-1.3563 7.0616-7.3309 12.376-12.896 16.949-5.5759 4.5819-13.22 3.7946-19.141 7.3125-9.1801 5.4543-9.5669 18.261-6.2617 27.613 2.2164 6.2713 8.195 9.4309 13.844 11.607 6.6733 2.5713 11.29 8.3476 13.764 14.945 2.2714 6.0592 2.5344 12.913 6.5723 18.195 3.156 4.1284 7.6735 8.8861 5.6484 14.641-5.0943 14.477-13.779 27.365-23.959 38.662-7.0164 7.7861-12.494 17.003-14.848 27.227-3.5963 15.624-3.3759 32.533 3.1035 47.484 3.316 7.6519 8.6492 13.957 13.088 20.877 4.3765 6.8229 1.2286 15.431 4.6211 22.381 2.9371 6.0172 8.1239 13.164 4.3398 19.648-6.9324 11.88-19.419 15.885-27.701 30.256-5.9724 5.6331-12.323 11.231-20.223 13.801-12.53 4.0759-25.458 7.7225-38.646 8.2832-10.247 0.43563-17.986 7.4007-25.164 13.654-2.5936 2.2596-6.2132 3.0252-9.5449 3.1309-71.005-4.3214-127.8-53.222-141.25-123.88-16.943-89.041 12.093-159.01 25.864-266.4 1.382-6.3286 1.9454-14.159 8.0312-17.977 1.5304-0.92434 3.4858-1.3173 5.7129-1.3438zm115.13 1.4648c1.9779 0.0353 3.448 1.3464 3.2012 4.623-0.64639 8.5795-11.078 15.071-18.488 11.703-4.9858-2.266-14.283-2.9383-11.523 4.3652 2.8569 7.5602 11.338 12.576 19.562 12.789 7.1295 0.1844 13.276-3.8484 18.289-8.416 4.5564-4.1512 10.693-5.2579 16.619-5.4551 33.766-1.1236 67.575-2.1543 101.36-1.0293 7.2238 0.24054 8.9504 13.408 1.957 14.256-12.081 1.465-24.358 0.11392-36.494-0.76953-19.84-1.4443-39.534-3.8595-59.451-5.4824-8.7222-0.71073-15.758 7.1249-23.094 11.633-6.5349 4.016-14.816 9.6533-22.457 6.0391-5.5308-2.616-12.076-2.0067-16.877-5.7812-5.4663-4.2973-6.3295-12.166-6.502-18.789-0.13185-5.0632-0.22419-15.676 6.584-14.256 7.2649 1.5155 15.855 2.9282 21.062-2.3984 1.785-1.826 4.2721-3.0666 6.25-3.0312zm172.44 19.234c3.2342 0.0556 6.7904 1.0788 9.9336 0.64062 5.1755-0.72154 10.087 2.123 10.24 7.5977 0.29725 10.595 0.011 21.544 3.916 31.652 1.8282 4.7324 9.5634 9.6074 4.7207 14.844-1.1663 1.2611-2.9288 1.2935-4.5684 1.4023-14.358 0.95291-28.772 0.19169-43.145-0.26367-6.4676-0.20491-13.001-0.61424-19.42 0.10547-4.4607 0.50018-12.08-5.8145-7.043-9.0801 5.6959-3.6924 13.343-1.9333 20.07-2.2207 5.8142-0.24838 12.295 1.8166 17.461-1.3555 7.1127-4.3674-6.4507-11.129-1.5117-16.207 3.7298-3.8351 1.6461-6.9407-0.70898-10.631-2.974-4.6599 0.69849-11.916 4.7383-15.014 1.5511-1.1892 3.3759-1.5041 5.3164-1.4707zm-60.062 67.553c7.2969-0.0794 14.658 0.43406 21.939 0.40625 29.334-0.11197 58.687 1.9735 87.994 0.72266 6.3833-0.27244 13.957 3.1184 13.932 9.9277-0.0254 6.815-8.6568 8.8509-14.373 6.8789-6.0594-2.0904-12.54 0.20252-18.98-0.4375-24.27-2.4118-48.751-1.2705-73.141-1.4258-9.7293-0.0619-19.661 2.6712-29.221-1.2715-5.7942-2.3898-7.7712-12.668-1.1836-13.771 4.3003-0.72003 8.655-0.98168 13.033-1.0293zm20.566 27.551c0.35059-0.0141 0.69787-0.0146 1.0391 0 19.459 0.83365 38.921 0.55459 58.387 0.49609 4.7258-0.0142 16.089-0.0192 12.213 6.9473-1.2369 2.2232-3.584 3.7233-6.2285 3.6934-18.172-0.20562-36.418 1.32-54.578 0.18164-5.7645-0.36135-12.479 1.4725-17.166-3.0469-4.8597-4.6856 1.0751-8.0605 6.334-8.2715zm59.463 21.922c5.5533 0.0122 13.5 2.3328 11.445 8.8144-0.08 0.25229-0.47368 0.26633-0.73633 0.29883-16.017 1.9845-32.271 2.3863-48.375 1.5703-7.0044-0.35492-14.581 2.9999-20.846-0.82617-5.3806-3.2859 1.1022-9.6504 6.9395-9.0566 16.753 1.7041 33.69 0.15929 50.498-0.77344 0.34528-0.0192 0.704-0.0282 1.0742-0.0273zm-36.043 21.27c5.5705 0.14362 11.171 2.134 16.781 2.1035 6.444-0.035 13.547 2.456 16.135 8.3516 7.7728 17.709 19.978 32.708 29.967 49.059 7.3208 11.984 12.684 26.488 9.084 40.473-3.2444 12.603-9.2841 27.559-22.299 31.578-13.802 4.2627-28.781 0.63471-43.141 1.4844-6.3153 0.37364-13.029-3.8939-18.549 0.29493-1.5364 1.1659-3.233 2.4658-5.1172 2.1406-6.2368-1.0763-12.581-2.1399-18.848-1.4473-6.3538 0.70233-12.357-10.41-4.4258-11.369 6.8087-0.82339 13.963-0.73912 20.607 1.0781 6.4698 1.7694 12.938-5.1574 7.4492-10.955-3.9231-4.1442 1.3958-13.815-5.1523-15.82-6.1138-1.8721-12.658-0.3374-19.025-1.2773-5.4109-0.7988-8.9737-8.0201-2.0586-9.8223 6.5927-1.7182 12.877 0.50523 19.324 0.21094 5.9989-0.27381 6.047-7.9424-0.13086-8.0762-4.7736-0.10337-13.49 1.7078-14.084-4.4707-0.49017-5.0958 8.2154-4.5942 12.203-3.5137 5.3705 1.4553 12.15-6.8176 7.1797-10.82-3.9558-3.1859-9.8755-1.6868-14.768-1.3945-5.2081 0.31111-11.628 3.4271-15.586-1.1934-5.4986-6.4193 6.3765-7.3634 10.943-6.1738 6.2845 1.637 14.594 2.9654 19.67-2.0781 5.0768-5.0445-4.0087-10.233-8.9473-8.8672-4.47 1.2365-16.095-0.45045-12.293-5.8535 3.1568-4.4858 10.681-1.6123 16.059-1.6953 5.4176-0.0837 10.669-4.0251 7.0566-9.8496-2.9726-4.7936-8.2739-0.71687-11.164-5.1699-2.2692-3.4963-0.8919-10.013 3.8418-9.2188 6.4419 1.0811 9.7736-6.5312 15.436-7.4629 1.282-0.21096 2.5661-0.27729 3.8516-0.24414zm-48.367 69.959c2.9079 0.10195 5.4998 1.5172 3.8359 4.6211-1.305 2.4344-6.0824 2.7324-8.2402 0.68945-3.5945-3.4032 0.66554-5.4416 4.4043-5.3106zm-205.99 12.096c0.81102-0.0467 1.7052 0.18527 2.6524 0.78516 6.6714 4.2254 13.163 9.1785 21.084 10.684 7.2658 1.3805 14.978 2.1082 22.23 0.54493 4.5408-0.97868 14.162 6.4879 7.8867 8.5039-13.235 4.2521-27.795-0.75734-41.037-4.8438-4.8268-1.4895-10.056-1.9725-14.48-4.4238-4.7095-2.609-2.7154-10.998 1.6641-11.25zm108.72 8.0215c3.7175-0.0873 12.33 2.4738 7.0098 5.1953-2.2457 1.1487-4.8829 1.1476-7.2539 1.9688-6.8231 2.3629-6.2204-6.2345-0.42969-7.1113 0.19875-0.0301 0.426-0.0469 0.67383-0.0527zm-59.482 33.566c-3e-5 3.675-2.9792 6.6543-6.6543 6.6543-3.675-3e-5 -4.6543-2.9792-4.6543-6.6543 0.49485-6.4782 11.194-3.6622 11.309 0zm242 22.756c3.0781 0.0116 6.0455 0.54668 8.6816 2.5312 6.7374 5.072 0.99096 16.476-7.2246 16.309-8.8978-0.18123-17.789 1.7619-26.672 1.0801-6.8396-0.52497-14.518 1.6246-20.49-2.0274-6.2036-3.7936 4.4548-7.8957 7.627-10.479 7.4153-6.0376 17.114-7.4128 26.107-6.8301 3.8696 0.25073 8.0131-0.59884 11.971-0.58399zm-41.18 33.221c7.8253 0.0163 15.736 2.3871 23.613 2.5273 4.6253 0.0824 9.2757 1.0939 12.641 4.2324 3.3404 3.1156 6.7594 6.0216 10.475 8.6973 6.2857 4.5269 10.972 10.736 15.953 16.598 5.8728 6.9108 13.464 12.433 21.449 16.678 4.1015 2.1803 7.8252 11.389 1.3555 11.787-44.352-0.4805-97.88-2.373-145.29-0.56836-6.5245 1.8251-13.639-8.8746-6.2852-10.547 12.607-2.8668 25.803-2.2984 38.732-1.8926 5.143 0.16144 14.608 0.0155 13.789-6.707-0.7063-5.8008-8.8135-6.5781-13.547-5.0508-4.3843 1.4147-16.614-0.58433-11.605-5.7676 4.8517-5.0209 13.481-1.8459 20.201-1.2207 6.6121 0.61513 8.9388-7.8567 8.1602-13.309-0.75124-5.2598-1.194-13.998 4.9551-15.037 1.7952-0.30351 3.5965-0.42369 5.4024-0.41992zm-99.24 70.072c4.4479 0.0306 8.9005 0.17326 13.326 0.22266 64.117 0.71563 125.14 1.6361 198.55 4.0664 8.7925 0.29108 18.091-1.0901 25.723 3.2344 5.4212 3.0717 4.4664 12.243 0.49609 16.834-5.2286 6.046-14.01 4.4003-21.154 4.9473-5.6446 0.43216-11.271 1.1745-16.924 1.0625-67.046-1.6172-137.44-5.6912-207.65-4.5352-8.5193 0.91807-19.182-0.94469-23.33-9.2324-3.1451-6.2837 2.7964-13.573 8.9336-14.867 7.2186-1.5225 14.616-1.7835 22.029-1.7324z"/>
 </g>
</svg>
