<svg height="512" viewBox="0 0 58 60" width="512" xmlns="http://www.w3.org/2000/svg"><g id="012---Trypewriter"><path id="Shape" d="m47 0h-36c-1.1045695 0-2 .8954305-2 2v18h40v-18c0-1.1045695-.8954305-2-2-2zm-25 4h14c.5522847 0 1 .44771525 1 1s-.4477153 1-1 1h-14c-.5522847 0-1-.44771525-1-1s.4477153-1 1-1zm-9 6h3c.5522847 0 1 .4477153 1 1s-.4477153 1-1 1h-3c-.5522847 0-1-.4477153-1-1s.4477153-1 1-1zm32 6h-32c-.5522847 0-1-.4477153-1-1s.4477153-1 1-1h32c.5522847 0 1 .4477153 1 1s-.4477153 1-1 1zm0-4h-25c-.5522847 0-1-.4477153-1-1s.4477153-1 1-1h25c.5522847 0 1 .4477153 1 1s-.4477153 1-1 1z"/><path id="Shape" d="m57 21c-.5522847 0-1 .4477153-1 1v3h-3v-1c0-1.1045695-.8954305-2-2-2h-44c-1.1045695 0-2 .8954305-2 2v1h-3v-3c0-.5522847-.44771525-1-1-1s-1 .4477153-1 1v8c0 .5522847.44771525 1 1 1s1-.4477153 1-1v-3h3v1c0 1.1045695.8954305 2 2 2h4c-4.418278 0-8 3.581722-8 8v18h-1c-1.1045695 0-2 .8954305-2 2s.8954305 2 2 2h54c1.1045695 0 2-.8954305 2-2s-.8954305-2-2-2h-1v-18c0-4.418278-3.581722-8-8-8h4c1.1045695 0 2-.8954305 2-2v-1h3v3c0 .5522847.4477153 1 1 1s1-.4477153 1-1v-8c0-.5522847-.4477153-1-1-1zm-19 26c-.0063217-1.5272079 1.1356803-2.8154186 2.6526303-2.9922422 1.5169501-.1768237 2.9246296.8141827 3.2697433 2.3018992.3451137 1.4877166-.4825005 2.9972562-1.9223736 3.506343v1.184c0 .5522847-.4477153 1-1 1s-1-.4477153-1-1v-1.184c-1.1943509-.4222546-1.9947486-1.5492146-2-2.816zm-4-10c-.0063217-1.5272079 1.1356803-2.8154186 2.6526303-2.9922422 1.5169501-.1768237 2.9246296.8141827 3.2697433 2.3018992.3451137 1.4877166-.4825005 2.9972562-1.9223736 3.506343v1.184c0 .5522847-.4477153 1-1 1s-1-.4477153-1-1v-1.184c-1.1943509-.4222546-1.9947486-1.5492146-2-2.816zm-4 10c-.0063217-1.5272079 1.1356803-2.8154186 2.6526303-2.9922422 1.5169501-.1768237 2.9246296.8141827 3.2697433 2.3018992.3451137 1.4877166-.4825005 2.9972562-1.9223736 3.506343v1.184c0 .5522847-.4477153 1-1 1s-1-.4477153-1-1v-1.184c-1.1943509-.4222546-1.9947486-1.5492146-2-2.816zm-4-10c-.0063217-1.5272079 1.1356803-2.8154186 2.6526303-2.9922422 1.5169501-.1768237 2.9246296.8141827 3.2697433 2.3018992.3451137 1.4877166-.4825005 2.9972562-1.9223736 3.506343v1.184c0 .5522847-.4477153 1-1 1s-1-.4477153-1-1v-1.184c-1.1943509-.4222546-1.9947486-1.5492146-2-2.816zm-4 10c-.0063217-1.5272079 1.1356803-2.8154186 2.6526303-2.9922422 1.5169501-.1768237 2.9246296.8141827 3.2697433 2.3018992.3451137 1.4877166-.4825005 2.9972562-1.9223736 3.506343v1.184c0 .5522847-.4477153 1-1 1s-1-.4477153-1-1v-1.184c-1.1943509-.4222546-1.9947486-1.5492146-2-2.816zm-4-10c-.0063217-1.5272079 1.1356803-2.8154186 2.6526303-2.9922422 1.5169501-.1768237 2.9246296.8141827 3.2697433 2.3018992.3451137 1.4877166-.4825005 2.9972562-1.9223736 3.506343v1.184c0 .5522847-.4477153 1-1 1s-1-.4477153-1-1v-1.184c-1.1943509-.4222546-1.9947486-1.5492146-2-2.816zm-4 10c-.0063217-1.5272079 1.1356803-2.8154186 2.6526303-2.9922422 1.5169501-.1768237 2.9246296.8141827 3.2697433 2.3018992.3451137 1.4877166-.4825005 2.9972562-1.9223736 3.506343v1.184c0 .5522847-.4477153 1-1 1s-1-.4477153-1-1v-1.184c-1.1943509-.4222546-1.9947486-1.5492146-2-2.816zm-1-13c1.4594373-.0027654 2.7080809 1.0474881 2.9553873 2.485822s-.5788398 2.8453257-1.9553873 3.330178v1.184c0 .5522847-.4477153 1-1 1s-1-.4477153-1-1v-1.184c-1.3765475-.4848523-2.2026937-1.8918441-1.9553873-3.330178s1.49595-2.4885874 2.9553873-2.485822zm-4 10c1.4594373-.0027654 2.7080809 1.0474881 2.9553873 2.485822s-.5788398 2.8453257-1.9553873 3.330178v1.184c0 .5522847-.44771525 1-1 1s-1-.4477153-1-1v-1.184c-1.37654748-.4848523-2.2026937-1.8918441-1.95538732-3.330178.24730637-1.4383339 1.49595006-2.4885874 2.95538732-2.485822zm43 3c-.0052514 1.2667854-.8056491 2.3937454-2 2.816v1.184c0 .5522847-.4477153 1-1 1s-1-.4477153-1-1v-1.184c-1.4345815-.511019-2.2572889-2.0172125-1.9119918-3.5004302.3452971-1.4832176 1.7486502-2.4711782 3.2614267-2.2960444 1.5127765.1751339 2.6532831 1.4575966 2.6505651 2.9804746zm-4-10c-.0052514 1.2667854-.8056491 2.3937454-2 2.816v1.184c0 .5522847-.4477153 1-1 1s-1-.4477153-1-1v-1.184c-1.4345815-.511019-2.2572889-2.0172125-1.9119918-3.5004302.3452971-1.4832176 1.7486502-2.4711782 3.2614267-2.2960444 1.5127765.1751339 2.6532831 1.4575966 2.6505651 2.9804746z"/><circle id="Oval" cx="25" cy="47" r="1"/><circle id="Oval" cx="21" cy="37" r="1"/><circle id="Oval" cx="29" cy="37" r="1"/><circle id="Oval" cx="33" cy="47" r="1"/><circle id="Oval" cx="37" cy="37" r="1"/><circle id="Oval" cx="9" cy="47" r="1"/><circle id="Oval" cx="17" cy="47" r="1"/><circle id="Oval" cx="13" cy="37" r="1"/><circle id="Oval" cx="49" cy="47" r="1"/><circle id="Oval" cx="41" cy="47" r="1"/><circle id="Oval" cx="45" cy="37" r="1"/></g></svg>
