<svg id="Layer_1" data-name="Layer 1" xmlns="http://www.w3.org/2000/svg" viewBox="0 0 672.18 847.6"><path d="M96.1,847.6a11.62,11.62,0,0,0-1.19-2,37.35,37.35,0,0,1-7.65-13.31A36.41,36.41,0,0,1,85.42,820q0-131.64.07-263.28a6.3,6.3,0,0,0-2.17-5.22c-3-2.71-4.67-6.38-6.24-10a62.18,62.18,0,0,1-2.24-6.93c-1.15-3.82-.74-7.6-.84-11.38-.17-6.63,0-13.27.13-19.91a20.67,20.67,0,0,1,.56-3.25,10.17,10.17,0,0,0,.19-1.65q0-13.9,0-27.82c-1.47-5.32-.22-10.82-1-16.16-.4-2.59-.26-5.29-.9-7.73-.55-2.14-.48-4.23-.86-6.3s-1.49-4-1.63-6.07a38.27,38.27,0,0,0-1.21-5.51c-.56-2.51-1.4-5-2.2-7.41a47,47,0,0,1-2-5.55,4.2,4.2,0,0,0-4.22-3.47c-2.28-.11-3.8-1.54-5.71-2.23s-3.65-2.19-5.43-3.37a31.71,31.71,0,0,1-8.78-9,33.17,33.17,0,0,1-4.22-8.41,24.67,24.67,0,0,1-1.27-7.64c.18-11.84.08-23.68.08-35.52a8.45,8.45,0,0,0-.65-3.71c-.46-1-.26-2.35-.3-3.54s0-2.37,0-3.72H30.91c0,2.55-.14,5,0,7.47.41,6.21-2.54,10.79-7,14.62a8.83,8.83,0,0,1-5.09,2.3c-1.28.11-2.43,1.18-3.86.87-.83-.19-1.66-.4-2.49-.61-.38-.1-.78-.37-1.12-.31a5.31,5.31,0,0,1-3.8-1.14,21,21,0,0,1-7.3-8.35,3.68,3.68,0,0,1-.15-1.42c-.05-1.36-.11-2.72-.11-4.08q0-39.48,0-79c0-.48,0-1,0-1.44-.32-5.33,2.83-8.77,6.6-11.75a13.28,13.28,0,0,1,8.31-2.8A14.14,14.14,0,0,1,24,253a30.18,30.18,0,0,1,3.66,3.76A43.83,43.83,0,0,1,30,261.33c1.29,2.37.91,4.93.94,7.45,0,1.91,0,3.82,0,5.91h3.67c0-1,0-1.92,0-2.86.06-1.81-.34-3.69.83-5.34a1.31,1.31,0,0,0,.12-.7c0-3.8,1.49-7.24,3.16-10.5A40.63,40.63,0,0,1,49,242.3a30.77,30.77,0,0,1,10.37-6,30.31,30.31,0,0,1,11.09-1.78,12,12,0,0,0,1.44-.07c.44-2.24.46-4.57,1.38-6.46,1.12-2.31.45-4.82,1.61-7.12.88-1.75.69-4,1.19-6s1.25-3.87,1.9-5.81a45.34,45.34,0,0,1,4.78-10.51c1.32-2,2.62-4.18,5.37-4.72,2.13-.42,4.22-1,6.33-1.54.83-.21,1.65-.44,2.47-.64a48.13,48.13,0,0,0,4.8-1.21c2.13-.76,4.37-1.13,6.38-2.38,1.69-1.06,3.87-1.32,5.67-2.25,3.58-1.85,7-3.93,10.59-5.89a2.35,2.35,0,0,0,1.42-2.51,17.37,17.37,0,0,1,0-1.91V3.69c0-3.17.33-3.51,3.55-3.67.56,0,1.12,0,1.68,0H542.11c1.19,0,2.39.16,3.58.27a1.68,1.68,0,0,1,1.69,1.91c0,.72,0,1.44,0,2.16V173.08c0,.56,0,1.12,0,1.68a2,2,0,0,0,1.06,1.93c3.36,2.21,6.71,4.43,10.21,6.45,2.39,1.38,4.84,2.57,7.32,3.72a53.71,53.71,0,0,0,9.68,3.63c1.82.45,3.56,1.2,5.36,1.72a10.81,10.81,0,0,0,2.14.11,10.5,10.5,0,0,1,6,2.54,15.54,15.54,0,0,1,3.24,4.68c1.35,2.64,2.5,5.4,3.65,8.14a14.45,14.45,0,0,1,1,3.4c.51,3.29,2,6.33,2.13,9.72a8.57,8.57,0,0,0,1.07,3.84c.75,1.28.65,2.57.82,3.9a31.27,31.27,0,0,0,1.06,5.05,1.73,1.73,0,0,0,1.42.9c2.47-.43,4.75.54,6.94,1.19a24.65,24.65,0,0,1,7.08,2.91c2.3,1.55,4.47,3.2,6.65,4.89,3.43,2.68,5.52,6.28,7.73,9.87a28.17,28.17,0,0,1,3.38,7.23c.54,2,1.56,3.95,1.41,6.16a7.56,7.56,0,0,0,.71,4.39c.52.94.26,2.31.36,3.61h3.34c.06-.61.18-1.22.19-1.83q0-3.36,0-6.72c0-5,2.18-9,5.86-12.18,1.12-1,2.29-1.91,3.44-2.86.19-.15.4-.37.6-.38,2.52-.15,4.81-1.67,7.44-1.17a17,17,0,0,1,13,9.9,5.83,5.83,0,0,1,.45,2.08c.1,1.43.13,2.88.13,4.31q0,39.24,0,78.48c0,.8,0,1.6,0,2.4.19,5.75-3.51,8.89-7.72,11.77-1.47,1-3.3.58-4.7,1.37a5.37,5.37,0,0,1-3.94.48c-3.88-.88-7.48-2.33-10.14-5.56s-4.58-6.94-4.39-11.41c.12-2.7,0-5.4,0-8.23h-3.57a24,24,0,0,1-.13,2.54c-.15,1-.48,2-.65,2.95a15,15,0,0,0-.27,2.58c0,12.72-.11,25.45,0,38.16A26.51,26.51,0,0,1,633.37,394,37.41,37.41,0,0,1,625,405a26.06,26.06,0,0,1-4.08,2.91c-2.3,1.38-4.67,2.65-7.05,3.89a4.93,4.93,0,0,1-1.84.39,3.33,3.33,0,0,0-3,2,27.07,27.07,0,0,0-2.41,6.68c-.51,2.52-1.42,5-2.12,7.44-.28,1-.47,2-.69,2.95s-.35,1.68-.55,2.52c-.06.22-.29.41-.32.63-.36,2.8-.74,5.61-1,8.42-.16,1.56.26,3.18-.8,4.63-.31.44-.16,1.24-.16,1.88,0,10.08,0,20.16,0,30.24a29.27,29.27,0,0,0,.69,4.19,12,12,0,0,1,.21,1.89c0,2,0,4,0,6,0,1.34-.16,2.68.7,3.92a3.61,3.61,0,0,1,.24,1.86c0,1.92-.06,3.85.05,5.76a22,22,0,0,0,.62,3,13.9,13.9,0,0,1,.29,2.11c0,1.76,0,3.52,0,5.28a10.66,10.66,0,0,0,.26,1.87,16.53,16.53,0,0,1,.65,3c.08,3.44-.15,6.89.08,10.32.45,6.9-2.15,12.83-5.58,18.51-1.18,2-2.76,3.7-4.09,5.58a5,5,0,0,0-.74,1.92,11.84,11.84,0,0,0,0,2.15q0,133.32,0,266.64a22.91,22.91,0,0,1-1.79,8.44,42.6,42.6,0,0,1-2.49,6.08c-1.56,2.66-3.49,5.1-5.24,7.64-.43.63-.77,1.33-1.15,2ZM128,1.91V6.28l.09,176.58q0,34.32,0,68.63c0,.64,0,1.28,0,1.92a1.48,1.48,0,0,0,1.72,1.53c2.72,0,5.44.17,8.15.16,5.92,0,11.83-.15,17.75-.17,8.24,0,16.48,0,24.72,0a4.44,4.44,0,0,0,3.73-1.66c3.51-4.09,8.22-5.75,13.41-6,4.31-.22,8.64-.2,12.95,0,5.1.24,9.79,1.79,13.27,5.77a5.2,5.2,0,0,0,4.36,1.89q86.63-.06,173.25,0,29.16,0,58.32,0a3.88,3.88,0,0,0,3.39-1.32c3.67-4.46,8.67-6.13,14.21-6.35,4-.16,8-.17,12,0,5.53.24,10.55,1.83,14.23,6.32a3.26,3.26,0,0,0,2.67,1.33c2.07,0,4.15.19,6.23.18q14.87-.08,29.74-.2c2.58,0,2.72-.14,2.76-2.69,0-.48,0-1,0-1.44q0-38.86.08-77.72,0-84.6,0-169.18c0-.61-.11-1.23-.18-2ZM338.58,582.19q-96.1,0-192.23,0c-6.91,0-13.36,1.44-19.1,5.34-7,4.74-11,11-11,19.84q.12,98.76,0,197.51v3.84c0,5.32,2.17,9.74,5.57,13.68a3.14,3.14,0,0,0,3.19,1.08,33.31,33.31,0,0,1,4.78-.34q55.92,0,111.84,0a29.62,29.62,0,0,1,9.67,1.49c3.71,1.26,7.12,2.94,9,6.7.61,1.24,1.7,1.24,2.86,1.24q74.16,0,148.32,0c1.2,0,2.4,0,3.59,0a2.59,2.59,0,0,0,2.71-1.54,12.06,12.06,0,0,1,6.23-5.39,29.87,29.87,0,0,1,12.12-2.5q56,0,112.08,0a23,23,0,0,1,4.06.26,3.23,3.23,0,0,0,3.34-1.28,22,22,0,0,0,5.44-14.73q0-100.2,0-200.39a23.15,23.15,0,0,0-.28-3.82c-1.11-6.85-5.1-11.78-10.66-15.57-5.74-3.92-12.17-5.42-19.07-5.42Q434.82,582.22,338.58,582.19ZM362.75,293l.63,0c.18.93.42,1.84.53,2.77.72,6.12,1.44,12.23,2.12,18.35.25,2.22.61,3.31,3.3,2.78a8.55,8.55,0,0,1,1.68,0h91.42a23.36,23.36,0,0,1,3.35.2,8.16,8.16,0,0,1,6.82,5.34,14.49,14.49,0,0,1,.77,3.95c.16,1.65.31,1.89,2,2,.32,0,.64,0,1,0h66c2.57,0,2.7-.14,2.74-2.71V266.11c0-.48,0-1,0-1.44-.1-1.85-.26-2-2.14-2-12.08,0-24.15,0-36.23,0a4,4,0,0,0-3.33,1.51,15.53,15.53,0,0,1-10.84,5.52c-5.18.37-10.39.45-15.58.31-5.38-.14-10.19-1.95-13.78-6.23-.89-1.06-2-1.1-3.24-1.1q-54.24,0-108.47,0-61.67,0-123.34,0a5,5,0,0,0-4.2,1.72,15.38,15.38,0,0,1-10.7,5.32c-5.17.38-10.38.43-15.57.3-5.4-.14-10.17-2-13.75-6.28a3.56,3.56,0,0,0-3-1q-22.43,0-44.87-.1c-2,0-4,.1-6,.07-1.22,0-1.79.49-1.79,1.68,0,.72,0,1.44,0,2.16v29.51q0,14.88,0,29.76c0,2.45.2,2.63,2.57,2.63h66.71c1.6,0,3.2,0,4.8,0,2-.05,2.1-.22,2.09-2.26a8.91,8.91,0,0,1,7.87-9.08,24.89,24.89,0,0,1,3.35-.15h91.67c2.74,0,3-.2,3.27-2.92.7-6.44,1.36-12.88,2.06-19.32.07-.62-.12-1.44,1-1.9.17,1.05.37,2,.47,2.89.28,2.54.47,5.1.78,7.64.91,7.54,1.88,15.07,2.79,22.61.28,2.3.4,2.49,2.84,2.49h35.75c2.34,0,2.63-.26,2.88-2.53q1.56-13.69,3.07-27.41Zm-26.4,68H41.92c-.48,0-1,0-1.44,0-2,.06-2.11.19-2.15,2.26,0,.88,0,1.76,0,2.64,0,3.5,0,3.5,3.56,3.5H630c4.07,0,4.25-.18,4.22-4.31v-.48c-.11-3.45-.28-3.62-3.71-3.62ZM181.09,409.78H161.41c-1.91,0-2.13.18-2.83,1.94a10.93,10.93,0,0,0-.39,1.14,32.43,32.43,0,0,0,.82,20.73c4.27,11.26,14.3,18.61,25.87,19a4.73,4.73,0,0,0,3.69-1.3q8.64-8.16,17.34-16.24a3.06,3.06,0,0,0,.88-3.39c-1.4-6.39-2.66-12.83-3.84-19.27-.47-2.6-.32-2.64-2.9-2.64Zm313.82,0h-1.2c-4.87,0-9.74,0-14.62,0-1.83,0-2,.2-2.34,2-.07.39-.1.79-.18,1.18-1,5.25-1.89,10.52-3,15.75a3.9,3.9,0,0,0,1,4.07q8.45,8.67,16.75,17.47c1.17,1.24,2.3,1.59,3.8.86.5-.24,1-.41,1.55-.63,14.16-6,21.59-22.76,16.5-38.57-.58-1.82-1-2.11-2.94-2.11ZM320.53,449c.08-1.05-.13-1.34-1.65-1.65-.54-.11-1.1-.16-1.66-.26-2.08-.37-2.32-.24-2.7,1.83q-1.42,7.67-2.82,15.33-3.85,21-7.7,42c-.75,4.09-1.51,8.18-2.24,12.27-.34,1.89-.12,2.23,1.71,2.73,1.61.45,3.24.88,4.87,1.26,1.91.43,2.17.24,2.45-1.77q1.24-8.9,2.47-17.81,2.85-21,5.68-42.06Zm35.24.13c.43,6.36.82,11.54,1.14,16.72.42,6.62.77,13.24,1.19,19.86.47,7.26,1,14.51,1.49,21.76.34,5,.65,10,1,15.07.13,1.74.47,2,2.07,1.74q2.85-.46,5.66-1.06c1.58-.35,1.9-.83,1.7-2.32q-1.86-14-3.73-28-2.43-18.56-4.8-37.1c-.3-2.29-.58-4.59-.9-6.89-.23-1.65-.61-1.94-2.17-1.75C355.91,447.42,355.69,447.68,355.77,449.14ZM328.63,452h0c0-.4.07-.8.1-1.2.12-2.09-.14-2.41-2.11-2.62s-2.41.11-2.68,2.08q-.87,6.17-1.7,12.35-3,22.45-6.07,44.91c-.64,4.75-1.29,9.5-1.9,14.26-.2,1.65,0,2,1.65,2.3s3.32.54,5,.76c2.3.31,2.71,0,2.86-2.27q.76-11.13,1.52-22.25Q327,476.16,328.63,452Zm52.25-9.16c.21,1.06.34,1.77.49,2.47,1.44,7,2.9,13.92,4.32,20.89q4.53,22.32,9,44.65c.14.71.31,1.41.49,2.1a1.15,1.15,0,0,0,1.83.84c1.94-.94,3.85-1.93,5.77-2.91a1.76,1.76,0,0,0,.89-2.41c-.52-1.59-.95-3.22-1.39-4.84l-14.82-54.58c-.61-2.23-1.16-4.49-1.83-6.71-.47-1.54-.95-1.71-2.48-1.2a3.57,3.57,0,0,0-1.12.42A9.94,9.94,0,0,0,380.88,442.84ZM286,515.26c.33-1,.61-1.59.78-2.25q3.51-13.44,7-26.9,5.06-19.62,10.07-39.24c.47-1.85.32-2.26-1.17-2.79-2.08-.74-2.75-.54-3.4,1.25-.78,2.18-1.47,4.39-2.19,6.59q-6.6,20.16-13.19,40.31c-1.9,5.77-3.83,11.52-5.75,17.27-.3.9-.45,1.81.55,2.3C281,513,283.41,514,286,515.26Zm62.33-28.4h-.29q0,13.53,0,27.06c0,3.27-.05,6.55,0,9.82,0,1.8.38,2.15,2.11,2s3.35-.22,5-.44,2-.82,1.9-2.43q-.39-5.61-.76-11.22c-.71-10.43-1.45-20.86-2.13-31.29-.54-8.2-1-16.41-1.49-24.61-.13-2.07-.27-4.14-.47-6.21-.12-1.34-.54-1.63-1.89-1.51-1.62.14-2,.58-2,2.6Q348.33,468.78,348.34,486.86Zm-12.22.64h0v-36a9.59,9.59,0,0,0,0-1.2,1.64,1.64,0,0,0-1.84-1.74c-1.33-.05-1.79.46-1.91,2.14-.28,4.22-.52,8.45-.83,12.68-.84,11.39-1.72,22.79-2.55,34.19-.63,8.61-1.2,17.22-1.8,25.83-.11,1.62.3,2.19,1.95,2.35s3,.16,4.56.2c2.19,0,2.44-.21,2.44-2.47Zm36.61-24c-.11-.73-.22-1.36-.3-2-.64-4.84-1.26-9.68-1.91-14.51-.25-1.9-.57-2.1-2.53-1.69-.78.16-1.57.31-2.34.55-1.53.48-1.76.85-1.55,2.45q1.38,10.46,2.76,20.92,2.88,21.88,5.74,43.77c.29,2.22.54,4.44.85,6.66.13.86.25,2,1.42,1.84a20.28,20.28,0,0,0,4.14-1.17,1.66,1.66,0,0,0,.92-2c-.15-1-.37-2.05-.49-3.08-1.9-15.4-4-30.77-6.89-46-.33-1.69-1-3.43.11-5.11C372.78,463.94,372.72,463.65,372.73,463.51ZM391.9,515c-.21-1.11-.36-1.89-.52-2.68-.85-4.15-1.72-8.3-2.55-12.45-1.43-7.13-2.83-14.27-4.27-21.41-1.17-5.79-2.38-11.58-3.57-17.37-1.09-5.33-2.17-10.66-3.29-16-.43-2-1.8-2.54-3.17-1.13a2.94,2.94,0,0,0-.45,2.16c1.15,9.2,2.36,18.4,3.56,27.6q2.31,17.72,4.64,35.44c.35,2.7.7,5.39,1.11,8.08.2,1.29.67,1.64,1.74,1.26,1.89-.66,3.77-1.37,5.58-2.19C391.26,516.09,391.59,515.38,391.9,515Zm-94.34,4.55a19.45,19.45,0,0,0,.79-2.39q1.74-9.31,3.44-18.64,2.85-15.58,5.7-31.15c1.21-6.53,2.45-13.05,3.66-19.57.22-1.21-.28-1.8-1.61-2.2-1.14-.34-1.64.25-2,1.18-.16.46-.33.91-.45,1.37q-3.64,14.29-7.3,28.59-3.72,14.52-7.48,29c-.75,2.94-1.48,5.89-2.26,8.83-.3,1.14-.24,2.11,1,2.59C293.13,518,295.23,518.72,297.56,519.56Zm-43.27-23.37c.55-1,.93-1.55,1.22-2.17q10-21.52,20-43.06,2.76-6,5.58-11.93c.36-.75.76-1.44,0-2.17-1.88-1.87-3.67-1.63-4.92.65-.12.21-.21.44-.33.65q-7.25,13.24-14.5,26.49c-4.34,7.92-8.66,15.85-13,23.74a2,2,0,0,0,.41,2.94C250.48,492.83,252.2,494.36,254.29,496.19Zm173.24-1.82c2.18-2,4-3.6,5.83-5.25a1.82,1.82,0,0,0,.23-2.4q-8.22-16.92-16.42-33.86c-3.23-6.69-6.43-13.4-9.68-20.08-.76-1.58-1.12-1.68-2.34-1.12-2.11,1-2.58,1.67-2,3.15,1,2.6,2.13,5.17,3.17,7.76q5.09,12.56,10.15,25.12c3.28,8.15,6.53,16.31,9.81,24.46A21.37,21.37,0,0,0,427.53,494.37Zm-35.3-56.32c-2.72.14-3.75,1.66-3.07,3.89.51,1.68,1,3.37,1.47,5.06q3.11,11.33,6.16,22.65,2.76,10.19,5.53,20.36,2.22,8.22,4.48,16.42c.46,1.66.95,1.85,2.34,1,1.23-.75,2.43-1.55,3.65-2.3a2,2,0,0,0,.93-2.63c-1.11-3.16-2.14-6.36-3.17-9.55Q404.1,473,397.69,453c-1.44-4.48-2.83-9-4.33-13.45A5.27,5.27,0,0,0,392.23,438.05Zm-96,5.4c-.07-.3-.06-.66-.2-.74a11.5,11.5,0,0,0-2.94-1.32c-.41-.09-1.07.72-1.52,1.21a3.38,3.38,0,0,0-.44,1.1q-6.53,17.12-13,34.22-4.9,12.88-9.78,25.76c-.6,1.58-.47,2,1,3,1.14.74,2.3,1.44,3.49,2.1s1.76.5,2.25-1q4.55-13.74,9.07-27.51l11.64-35.49C295.88,444.29,296.06,443.85,296.21,443.45Zm-7.74-2.94a4.15,4.15,0,0,0-.88-1.15c-1.41-.95-2.44-.64-3.21,1-3.65,7.82-7.25,15.65-10.89,23.48q-7.62,16.41-15.27,32.82c-.8,1.73-.78,1.87.68,3,1.15.87,2.33,1.7,3.51,2.52,1.84,1.3,2.16,1.21,3-1,1.1-2.83,2.15-5.68,3.23-8.52q9.72-25.53,19.46-51.05C288.23,441.34,288.31,441,288.47,440.51Zm129.12,61.54c2.2-1.67,4.1-3.1,6-4.55.81-.62.54-1.37.21-2.15-1.09-2.58-2.15-5.16-3.19-7.76q-10.12-25.12-20.23-50.26a7.17,7.17,0,0,0-.82-1.72,1.54,1.54,0,0,0-1.21-.49,2.07,2.07,0,0,0-1.75,3q4.71,14.47,9.41,28.95,5.36,16.53,10.67,33.08A18.25,18.25,0,0,0,417.59,502.05Zm-77.91-14.63h0q0,16.66,0,33.34c0,1.12-.06,2.24,0,3.35,0,1.71.37,2,2.23,2s2.45-.35,2.52-2c0-.88,0-1.76,0-2.64q.07-19,.16-38.12c0-3.11-.1-6.22-.07-9.33.08-7.84.21-15.67.29-23.5,0-.51-.22-1.44-.45-1.48a12,12,0,0,0-3.73-.22c-1.12.17-.93,1.32-.93,2.18ZM230,470.13c.61-.65.9-.91,1.13-1.22l20.26-28.23c3-4.22,6.07-8.42,9.08-12.65.34-.48.78-1.43.6-1.63a9.17,9.17,0,0,0-2.73-2.21c-1-.49-1.47.66-2,1.3q-10.64,12.83-21.25,25.66-4.28,5.16-8.58,10.31c-.57.68-1.33,1.39-.78,2.32A52.07,52.07,0,0,0,230,470.13Zm221.14-2.44a35.67,35.67,0,0,0,3.57-5.24c1.07-1.78,1-1.89-.23-3.6L440.36,439.8q-6.92-9.35-13.85-18.67c-.55-.74-1.21-1.39-1.84-2.11-.64.41-1.05.64-1.43.92-1.86,1.38-1.88,1.53-.62,3.45q1.65,2.5,3.27,5,11.06,17.25,22.11,34.5C448.94,464.38,449.92,465.82,451.16,467.69ZM267.34,430.43c-1.83-2.46-2.42-2.46-4.12-.08Q253,444.66,242.67,459c-3,4.22-6.07,8.42-9.1,12.64-.5.69-1.36,1.45-.77,2.33a22.51,22.51,0,0,0,4.35,5.22C238.48,478,266.31,433,267.34,430.43Zm-22.62,56.7c.51-.8,1-1.48,1.42-2.22L270,441.43c1.12-2,2.27-4,3.33-6.1a2.32,2.32,0,0,0,.31-1.73c-.84-1.71-2.64-1.73-3.71-.12l-.5.82q-10,16.33-20.06,32.67c-2.84,4.63-5.67,9.27-8.53,13.89-.49.78-1,1.58-.29,2.39A17.29,17.29,0,0,0,244.72,487.13Zm192.36-1.66c1.49-1.67,2.68-2.94,3.79-4.26a2,2,0,0,0-.07-2.45c-1-1.75-1.91-3.51-2.86-5.26l-13.61-25.05q-5.31-9.78-10.66-19.56c-.75-1.37-1.19-1.49-2.22-.91-1.37.77-1.65,1.41-1,2.69.82,1.73,1.72,3.42,2.55,5.15q11.4,23.63,22.79,47.24C436.05,483.69,436.42,484.28,437.08,485.47Zm7.25-8.27c1.29-1.64,2.37-3,3.42-4.35,1.28-1.66,1.27-1.8.13-3.58q-12.7-19.75-25.4-39.53c-1.08-1.69-2.13-3.38-3.27-5-.74-1.07-1.39-1.08-2.36-.22a1.58,1.58,0,0,0-.32,2.32c.53.8,1,1.63,1.46,2.48q12.43,22.84,24.85,45.69C443.21,475.65,443.69,476.25,444.33,477.2Zm-233-47.52a10,10,0,0,0,1.24-.74q9.42-8.73,18.8-17.48c.33-.32.41-.9.75-1.67h-3.89c-6.16,0-12.32,0-18.48,0-2,0-2.31.35-2,2.25.84,5,1.69,9.92,2.6,14.87A19.68,19.68,0,0,0,211.31,429.68Zm246.28,26.88c2.78-2.93,2.86-3.8.79-6.69l-9.66-13.42q-7.62-10.6-15.26-21.2a22.46,22.46,0,0,0-1.89-2.06c-1.09.88-1.94,1.6-2.83,2.27a1.41,1.41,0,0,0-.28,2.26c.82,1.09,1.65,2.16,2.46,3.25q12.33,16.66,24.66,33.32C456.18,455.1,456.91,455.8,457.59,456.56ZM223.35,459.2a10,10,0,0,0,1.28-1.05q14.48-17.44,28.92-34.92c1.15-1.39,1.1-1.71-.35-2.9-.24-.21-.51-.38-.77-.57-1.88-1.46-1.89-1.47-3.38.38q-13,16.19-26,32.37c-2.34,2.92-2.33,2.93-.38,6.17C222.77,458.81,222.94,458.88,223.35,459.2Zm-8.66-18c.86-.75,1.35-1.11,1.76-1.55q12.26-13.14,24.49-26.3a11.38,11.38,0,0,0,.82-.88,1.24,1.24,0,0,0-.16-1.89,2.78,2.78,0,0,0-3.51-.38,17.81,17.81,0,0,0-2,1.69l-12.24,11.46c-3.38,3.16-6.76,6.34-10.15,9.49-.73.68-1.43,1.37-1.06,2.47C213.22,437.14,213.88,438.92,214.69,441.24Zm4.54,10.06c.64-.72,1.13-1.22,1.56-1.76l25.52-31.77c.2-.25.43-.48.61-.74.6-.84.2-1.5-.44-2.08a1.28,1.28,0,0,0-1.92-.09c-.48.43-.9.91-1.34,1.37l-10.78,11.58c-4.94,5.33-9.9,10.65-14.81,16-.5.55-1.17,1.45-1,2A13.88,13.88,0,0,0,219.23,451.3Zm242.64-3a29.62,29.62,0,0,1,1.45-2.86c1.39-2.11.75-3.7-.81-5.51-5.73-6.65-11.29-13.44-16.92-20.17-2.3-2.76-4.6-5.52-6.95-8.24a6.8,6.8,0,0,0-2-1.61,1.58,1.58,0,0,0-1.48.29,1.65,1.65,0,0,0,.11,1.47c.48.82,1.16,1.52,1.72,2.29l23.63,32.85C460.88,447.14,461.2,447.48,461.87,448.26Zm3.59-10.46.72-.16c.43-1.25.78-2.54,1.3-3.75.76-1.78.35-3.1-1-4.49q-8.82-9-17.47-18.11c-1.84-2-3.86-1.62-6.24-1.28a4.65,4.65,0,0,0,.43,1.29Q454.31,424.56,465.46,437.8Zm3.07-11.44.72-.18a14.37,14.37,0,0,0,.69-2.17c.65-3.78,1.24-7.57,1.84-11.35a8.63,8.63,0,0,0,.12-1.43c0-.83-.38-1.44-1.26-1.44-5.64,0-11.29,0-17.09,0,.09.61,0,1.11.22,1.33Q461.12,418.77,468.53,426.36Zm19.1,26.23c-.05-.65,0-1-.09-1.1q-7.11-7.44-14.25-14.86a6.33,6.33,0,0,0-1.33-.72c-.79,2.13-1.59,4.1-2.2,6.12a2.36,2.36,0,0,0,.65,1.69q3,3.73,6.14,7.36a3.79,3.79,0,0,0,2.09,1.44C481.56,452.69,484.5,452.59,487.63,452.59ZM208.41,438.15a15.67,15.67,0,0,0-1.6,1.09q-6.27,5.77-12.49,11.58a6,6,0,0,0-.82,1.44,3.69,3.69,0,0,0,1.06.4c2.87,0,5.75.1,8.62,0a3.49,3.49,0,0,0,2-1c1.22-1.14,2.32-2.42,3.46-3.65,2.89-3.12,2.63-2.2,1.17-6.2C209.42,440.63,208.94,439.49,208.41,438.15Zm13.84,29.32c-.49.18-.79.2-.92.35-1.7,2-3.38,4-5.06,6a1.61,1.61,0,0,0,0,2.18c.85,1.15,1.68,2.32,2.54,3.46.7.92,1.44,1.82,2.14,2.7.45-.2.74-.24.87-.41,1.57-2.1,3.16-4.18,4.62-6.35a2,2,0,0,0,.08-1.76C225.14,471.53,223.66,469.49,222.25,467.47ZM245,494.68c-1.39,2.49-2.69,4.74-3.86,7a1.6,1.6,0,0,0,.34,1.49c2.19,1.82,4.45,3.53,6.54,5.16.49-.19.72-.2.77-.31,1.1-2.1,2.23-4.19,3.19-6.36a1.91,1.91,0,0,0-.55-1.65C249.47,498.32,247.42,496.69,245,494.68ZM361.69,430c.39,3,.78,6,1.19,9,.24,1.72.65,2.33,1.7,2,1.66-.58,4.06.38,4.84-2.16a.6.6,0,0,0,0-.23c-.43-3.31-.84-6.63-1.32-9.93a1.47,1.47,0,0,0-1.92-1.3c-1,.19-2,.36-3.05.59A1.66,1.66,0,0,0,361.69,430Zm.88-20.2c-.48,0-1,0-1.44,0-1.78.11-2,.46-1.79,2.23.35,2.45.63,4.91,1,7.35.62,3.95.65,3.94,4.6,3.21,2-.38,2.32-.81,2-2.95s-.63-4.43-.9-6.64C365.69,409.91,365.58,409.78,362.57,409.79ZM234.4,484.2a4.67,4.67,0,0,0-.42-.92c-1.17-1.51-2.33-3-3.57-4.48-.79-.93-1.33-.89-2.11.15-1.35,1.78-2.61,3.62-3.92,5.42a1.7,1.7,0,0,0,.11,2.37c1.29,1.42,2.51,2.9,3.82,4.29.94,1,1.45.93,2.24-.28,1.17-1.8,2.28-3.64,3.39-5.48A7.19,7.19,0,0,0,234.4,484.2Zm20.91,18.93c-1.18,2.49-2.23,4.6-3.17,6.76-.39.89.25,1.48,1,1.94,1.74,1.11,3.46,2.25,5.22,3.34a6.85,6.85,0,0,0,1.53.42c.87-2.15,1.76-4.17,2.46-6.26a1.86,1.86,0,0,0-.61-1.6C259.77,506.23,257.74,504.86,255.31,503.13ZM323.13,430c.08-1.44-.15-1.66-2.55-2.1-1.87-.35-2.09-.27-2.47,1.57-.64,3.13-1.18,6.28-1.77,9.42-.53,2.81-.49,2.87,2.38,3.36.24,0,.47.1.71.12,1.57.18,2.06-.11,2.3-1.68C322.24,437.25,322.65,433.76,323.13,430Zm-110.3,19.78c-.54.13-.85.11-1,.25-1.94,2-3.88,4-5.76,6.06a1.54,1.54,0,0,0-.37,1.3,32.86,32.86,0,0,0,3.48,6.51c2.15-2.68,4.1-5.06,6-7.5a1.57,1.57,0,0,0,.18-1.35C214.57,453.29,213.67,451.54,212.83,449.81Zm63.76,66.59c-.34.28-.61.4-.69.59-.55,1.41-1.08,2.83-1.58,4.26-.57,1.62-.5,2,1,2.65,2.1,1,4.26,1.81,6.4,2.69a1.2,1.2,0,0,0,1.83-.89c.39-1.38.78-2.77,1.12-4.16a1.42,1.42,0,0,0-.8-1.8Zm63.08-99.12c0,1.84,0,3.68,0,5.52,0,1.14.5,1.82,1.72,1.81h1.68a1.62,1.62,0,0,0,1.82-1.76q0-5.64,0-11.27a1.59,1.59,0,0,0-1.78-1.78c-.48,0-1,0-1.44,0-1.64.08-2,.38-2,2C339.64,413.61,339.67,415.44,339.67,417.28Zm-102,70c-.48.19-.7.2-.77.3-1.38,2.13-2.77,4.26-4.11,6.42a1.45,1.45,0,0,0,.43,1.92c1.09,1.05,2.17,2.11,3.3,3.11.95.85,1.44.81,2.09-.26q1.65-2.77,3.12-5.64a1.72,1.72,0,0,0,0-1.53C240.4,490.06,239,488.64,237.64,487.28Zm102-50.93c0,1.59,0,3.18,0,4.78,0,2.29.32,2.58,2.68,2.41.16,0,.32,0,.48,0,1.55-.19,2-.58,2-2.11,0-3.27,0-6.53,0-9.8,0-1.6-.33-1.88-2-2-.31,0-.63,0-.95,0-2,0-2.21.25-2.22,2.19C339.68,433.32,339.68,434.83,339.68,436.35Zm96.41,56.93c-2.19,2-4.32,3.83-6.4,5.76a1.18,1.18,0,0,0-.22,1.1c.8,1.68,1.14,3.61,2.56,5.23a55.73,55.73,0,0,0,6.85-5.71,1.38,1.38,0,0,0,.25-1.29C438.29,496.7,437.7,494.85,436.09,493.28Zm22.81-28.17c-1.57,2.32-3,4.34-4.3,6.4a1.56,1.56,0,0,0-.13,1.35c1.13,1.76,2,3.77,3.85,5.39.89-1.22,1.68-2.2,2.35-3.25.85-1.33,2.25-2.73,2.22-4.09s-1.49-2.67-2.38-4A23.47,23.47,0,0,0,458.9,465.11Zm-193,45.26c-1,2.37-1.82,4.32-2.59,6.3a1.36,1.36,0,0,0,.79,1.78c1.61.86,3.23,1.72,4.86,2.54a1.3,1.3,0,0,0,2-.88c.51-1.5,1.1-3,1.49-4.52a1.86,1.86,0,0,0-.57-1.59C270.1,512.78,268.17,511.71,265.91,510.37Zm22.51,11.22c-.51,1.78-.92,3.21-1.32,4.63-.48,1.68-.33,2.12,1.3,2.69,1.88.66,3.79,1.23,5.71,1.76,1.29.35,1.7.07,2-1.28.25-1.08.41-2.19.65-3.27a1.48,1.48,0,0,0-1-1.92C293.51,523.35,291.19,522.56,288.42,521.59Zm21.26,8c.2-1.15-.46-1.73-1.51-2-2-.55-4-1.12-6-1.61-1.3-.32-1.67,0-2,1.33-.23.93-.4,1.88-.55,2.83-.23,1.49.07,2,1.55,2.46,1.15.34,2.34.52,3.5.79C309,534.36,309.47,534,309.68,529.56ZM323,533c.18-2.67.07-2.8-2.56-3.22-1-.16-2.05-.31-3.07-.45-4-.58-3.83-1.56-4.62,3.54-.24,1.58,0,2,1.68,2.21,2.05.33,4.11.56,6.17.82s2.22,0,2.39-1.94C323,533.65,323,533.33,323,533Zm73.63-12.84c.28,1.43.45,2.45.67,3.46s.91,1.49,1.95,1.06c1.39-.58,2.77-1.19,4.13-1.85,3.87-1.88,3.87-1.9,2.57-6-.43-1.36-.78-1.55-2.06-.95-2,.94-4,1.87-6,2.92C397.3,519.1,396.92,519.84,396.63,520.17ZM421,513.29c2.53-1.72,4.64-3.13,6.72-4.59a1.62,1.62,0,0,0,.56-2.12c-.5-1.18-.95-2.38-1.43-3.56-.18-.44-.42-.85-.65-1.32-2.48,1.82-4.5,3.24-6.43,4.78a2,2,0,0,0-.64,1.61C419.57,509.68,420.23,511.21,421,513.29Zm30.8-37.73c-1.76,2.22-3.18,4-4.56,5.8a1.36,1.36,0,0,0-.23,1.11,22.14,22.14,0,0,0,3.35,5.63,37,37,0,0,0,4.87-5.73,1.75,1.75,0,0,0,0-1.56C454.24,479.19,453.16,477.64,451.8,475.56Zm-128-65.8c-1.69,0-2.2.44-2.53,2.2-.58,3-1.16,6-1.7,8.94-.08.45-.1,1.27.08,1.34a12.62,12.62,0,0,0,3.37.93c1,.1,1.16-.9,1.28-1.7.47-3.25,1-6.49,1.38-9.74C325.87,410.19,325.41,409.75,323.79,409.76Zm-24.17,13.5c-.26.25-.95.61-1.17,1.16-1.41,3.46-2.76,6.95-4,10.46a1.86,1.86,0,0,0,.38,1.65c1.8,1.52,3.24,1.09,4-1.08q1.6-4.74,3.15-9.5C302.46,424.35,301.74,423.37,299.62,423.26Zm71.84,109.1c-.11-1.17-.15-1.88-.25-2.59-.23-1.58-.67-1.94-2.21-1.68-2.19.38-4.37.82-6.56,1.24-1,.2-1.61.86-1.39,1.86.27,1.26-.18,2.78,1.18,3.68a1.1,1.1,0,0,0,.7.07c2.43-.41,4.87-.75,7.27-1.31C370.78,533.49,371.19,532.65,371.46,532.36ZM289.54,420.45a4.06,4.06,0,0,0-.57-1,1.87,1.87,0,0,0-3.05.38c-1.8,3.12-3.52,6.28-5.22,9.45-.2.37-.32,1.17-.13,1.31a8.59,8.59,0,0,0,2.63,1.52c1,.3,1.31-.61,1.65-1.36,1.38-3,2.8-5.93,4.18-8.9C289.23,421.45,289.35,421,289.54,420.45ZM392.35,521.07l-1.24.46c-1.49.57-3,1.16-4.47,1.71-2.11.77-2.23.91-2,3.08a13.34,13.34,0,0,0,.19,1.67c.26,1.35.65,1.65,2,1.29s2.42-.81,3.63-1.22c4.17-1.42,4.17-1.42,3.05-5.64a1.89,1.89,0,0,0-.23-.67A6,6,0,0,0,392.35,521.07Zm-83.51-93.62a1.8,1.8,0,0,0-1.38-2.19c-1.08-.31-1.66.29-2,1.23-1.18,3.48-2.37,7-3.51,10.45-.43,1.33-.09,1.84,1.32,2.28,1.78.57,2.35.38,2.76-1.11.68-2.47,1.27-5,1.91-7.43C308.26,429.52,308.59,428.37,308.84,427.45ZM332,536.71a2.45,2.45,0,0,1,.51,0c4.34.37,3.51-.35,3.63-3.81A1.65,1.65,0,0,0,334.4,531c-1.36-.08-2.72-.09-4.07-.22-3.54-.32-3.51-.47-3.9,3.53a3.57,3.57,0,0,0,0,.47,1.47,1.47,0,0,0,1.56,1.71C329.14,536.6,330.34,536.64,332,536.71Zm-6.82-95.11c-.05.92.47,1.47,2.13,1.63,1.43.14,2-.31,2.13-1.88.11-1.11.15-2.23.23-3.34.16-2.31.34-4.61.47-6.92.08-1.41-.45-2.1-1.59-2.19s-1.68.37-1.86,1.68C326.17,434.05,325.73,437.52,325.17,441.6Zm26.49,94.69v.05c1.5-.17,3-.25,4.49-.55.59-.12,1.5-.73,1.53-1.15a12.54,12.54,0,0,0-.46-3.74c-.08-.31-.9-.64-1.37-.62a60.51,60.51,0,0,0-6.16.57c-.58.08-1.47.68-1.53,1.13a7.93,7.93,0,0,0,.18,3.95c.53,1.17,2,.31,3.07.37A1.93,1.93,0,0,0,351.66,536.29Zm90.77-40A29,29,0,0,0,447,491.9a1.25,1.25,0,0,0,.22-1.11c-.86-1.84-1.56-3.8-3.34-5.42-1.44,1.5-2.81,2.89-4.13,4.34a1.29,1.29,0,0,0-.28,1.1C440.36,492.61,440.88,494.65,442.43,496.28ZM261,419.93c.65.45,1,.67,1.29.91,2,1.48,2.28,1.44,3.78-.6,1.75-2.38,3.5-4.75,5.21-7.16.93-1.31.73-1.87-.61-2.64-1.12-.64-1.79-.11-2.45.7-1.51,1.85-3,3.69-4.56,5.54Zm154.69,89.23c-2.29,1.4-4.14,2.48-5.91,3.67a1.76,1.76,0,0,0-.73,1.37,10,10,0,0,0,1.74,4.85,29.41,29.41,0,0,0,6.17-3.54,1.45,1.45,0,0,0,.49-1.25C417,512.68,416.36,511.15,415.66,509.16Zm-56.24-68.84c-.46-3.48-.89-6.88-1.36-10.28a1.41,1.41,0,0,0-1.7-1.29c-1,.07-1.71.57-1.66,1.63q.23,5.26.59,10.53a1.38,1.38,0,0,0,1.75,1.44C358.7,442.13,359.4,441.56,359.42,440.32Zm108.8,6.48a24.09,24.09,0,0,1-1.25,2.32c-2,2.76-1.67,5.24.79,7.55a23.91,23.91,0,0,1,2,2.54c1.07-2.38,1.93-4.23,2.7-6.12a1.63,1.63,0,0,0-.16-1.35C471.11,450.18,469.81,448.7,468.22,446.8ZM213.48,471.55c2.19-2.63,4.09-4.87,5.92-7.16a1.53,1.53,0,0,0,.24-1.32c-.64-1.11-.93-2.55-2.5-3.14-1.84,2.26-3.7,4.44-5.41,6.72a2.33,2.33,0,0,0-.2,2A18.87,18.87,0,0,0,213.48,471.55Zm164.06-45.26c.62,3.13,1.21,6.27,1.89,9.39.23,1.05.9,1.28,2,.92,1.69-.52,2.36-1.26,2-2.4-.79-2.92-1.64-5.83-2.49-8.74a1.32,1.32,0,0,0-1.81-1.06C378.3,424.69,377.35,425,377.54,426.29Zm9.49-4.05c-1.94,0-2.87,1-2.47,2.56.68,2.63,1.42,5.25,2.13,7.87.25.9.58,1.71,1.79,1.42,1.7-.42,2.62-1.32,2.27-2.52-.84-2.84-1.79-5.64-2.78-8.42C387.82,422.71,387.24,422.43,387,422.24ZM264.25,409.83c-1.94,0-3.33-.05-4.71,0-2,0-4.8,2-5.33,4s1.81,2.08,2.66,3.19c.2.27.67.34,1.15.56A57.22,57.22,0,0,0,264.25,409.83ZM283,417.26c-1.79-1.39-2.17-1.4-3.19.2q-2.7,4.23-5.3,8.51c-.79,1.31-.37,2.26,1.06,2.73a1.51,1.51,0,0,0,1.93-.95q2.73-4.89,5.41-9.82A2.13,2.13,0,0,0,283,417.26ZM401.12,428c1.77-.1,3.27-1.72,2.76-2.85-1-2.32-2.23-4.57-3.4-6.83a1.34,1.34,0,0,0-2-.69c-.89.46-1.78,1-1.33,2.17.94,2.45,1.95,4.87,3,7.28C400.35,427.53,400.89,427.81,401.12,428Zm-111,6.77a5.34,5.34,0,0,0,1-1.31c1-2.42,1.9-4.89,2.84-7.34.32-.82.67-1.62,1-2.44s.69-1.79-.45-2.24-1.5.53-1.93,1.29a1.39,1.39,0,0,0-.11.21c-1.46,3.09-2.93,6.18-4.37,9.28C287.39,433.69,288.06,434.74,290.08,434.79ZM314.74,428l-1-1.23c-.44.38-1.14.69-1.27,1.15-1.06,3.68-2,7.4-3,11.1a1.32,1.32,0,0,0,1,1.81c1,.32,1.78,0,2-1.06C313.28,436,314,432.24,314.74,428Zm21.4,8.49h0v-1.68a36.8,36.8,0,0,0,0-4.07c-.06-.44-.73-1-1.22-1.13-.24-.07-.78.61-1.06,1-.16.23-.09.62-.11.94-.24,3.27-.49,6.54-.7,9.81-.09,1.4.49,2.2,1.52,2.29s1.61-.64,1.64-2.15C336.17,439.86,336.14,438.18,336.14,436.5Zm45.2,93c-.13-1.14-.21-2-.34-2.87a1.28,1.28,0,0,0-1.7-1.19c-1.16.26-2.31.58-3.44.93-.85.25-1.5.87-1.23,1.76.4,1.31-.27,3,1.18,3.94a.32.32,0,0,0,.23.06c1.58-.46,3.18-.85,4.71-1.43C381.11,530.61,381.22,529.83,381.34,529.55Zm-28-118.75c.1,1.43.18,2.38.23,3.34.13,2.62.23,5.25.38,7.88.09,1.53.85,2.14,2.1,1.75s1.12-1.19,1-2.12c-.39-2.85-.77-5.69-1.15-8.54a7.64,7.64,0,0,0-.34-2.11,1.93,1.93,0,0,0-1.3-1.05C353.89,409.92,353.48,410.66,353.34,410.8Zm-21.79.12c-.09-.12-.42-.9-.8-.93s-1,.56-1.37,1a1.74,1.74,0,0,0-.23.92c-.46,3.41-.89,6.82-1.37,10.22-.16,1.08.18,1.71,1.28,1.85s1.6-.51,1.67-1.53C331,418.75,331.25,415.09,331.55,410.92Zm-54.42,3.72c-.24-.34-.47-1-.76-1a1.77,1.77,0,0,0-1.41.51c-2.21,2.92-4.39,5.86-6.48,8.87a1.5,1.5,0,0,0,1.35,2.34,2.28,2.28,0,0,0,1.44-1c1.86-2.87,3.63-5.8,5.43-8.72A8.46,8.46,0,0,0,277.13,414.64Zm186.14,42.52c-.77,1.37-1.43,2.43-1.95,3.55a1.59,1.59,0,0,0,.1,1.35,25.53,25.53,0,0,0,4,5c.76-1.21,1.45-2.24,2-3.33a1.28,1.28,0,0,0,0-1.13A27.83,27.83,0,0,0,463.27,457.16Zm-91.76-29.89c.26,1.79.47,3.2.67,4.62.27,1.88.47,3.78.82,5.65.27,1.41,1.13,1.71,2.19.81a2.13,2.13,0,0,0,.81-1.56c-.56-3.2-1.25-6.39-1.94-9.57-.17-.81-.76-1.33-1.56-1C372,426.4,371.72,427,371.51,427.27Zm-20,12.43h0c-.13-2.7-.25-5.41-.39-8.11,0-.39,0-.92-.19-1.15a2.6,2.6,0,0,0-1.47-.85c-.3,0-.92.69-.93,1.09-.1,3.58-.09,7.16-.1,10.75,0,.88.3,1.57,1.33,1.63a1.66,1.66,0,0,0,1.87-1.69A15.68,15.68,0,0,0,351.5,439.7Zm39.74-18.32c1,3,1.9,5.76,2.81,8.48.28.83.74,1.43,1.78,1a1.61,1.61,0,0,0,1.13-2.25c-.63-1.64-1.35-3.24-2-4.86a22.62,22.62,0,0,0-1.22-2.85,1.58,1.58,0,0,0-1.32-.65C391.92,420.43,391.58,421,391.24,421.38Zm14.11-6.7a1.6,1.6,0,0,0-1.55,2.23c1,2.09,2,4.14,3.05,6.2.39.79.94,1.27,1.9.85a1.62,1.62,0,0,0,1-2.3c-1.09-2.12-2.27-4.18-3.48-6.24C406.06,415.06,405.57,414.85,405.35,414.68Zm-98.47-4.13c-.33-.23-.7-.67-1.14-.76-1.23-.24-1.91.52-2.33,1.56-.68,1.69-1.36,3.39-2,5.09-.51,1.35-.23,2.07.91,2.45s1.86,0,2.33-1.3c.73-2,1.38-4,2.05-6.08A6.85,6.85,0,0,0,306.88,410.55Zm6.2.5c-.13-.23-.32-1-.62-1a2.85,2.85,0,0,0-1.59.53c-.22.13-.29.55-.39.85-.84,2.39-1.7,4.78-2.49,7.19-.36,1.09,0,1.77,1,2.05,1.11.34,1.63-.26,1.89-1.23C311.56,416.73,312.28,414.05,313.08,411.05Zm61.31-.15c.6,2.87,1.1,5.44,1.7,8a1.16,1.16,0,0,0,1.64.9c.91-.31,1.58-.86,1.29-1.94q-.84-3.11-1.76-6.18a2.74,2.74,0,0,0-.61-1.27,1.87,1.87,0,0,0-1.43-.47C374.82,410,374.57,410.67,374.39,410.9Zm6.38,0c.54,2,1,3.8,1.51,5.57.25.92.67,1.65,1.84,1.38a1.8,1.8,0,0,0,1.52-2.49c-.4-1.38-.9-2.73-1.39-4.08-.13-.37-.31-.88-.6-1a4,4,0,0,0-2-.39C381.3,410,381,410.64,380.77,410.94Zm35.73-1.21c-1.7,0-2.16.69-1.5,1.8.89,1.49,1.87,2.94,2.89,4.35.82,1.14,1.21,1.14,2.33.31,1.42-1.06,1.55-1.49.69-2.69-.6-.83-1.28-1.61-1.88-2.45A2.83,2.83,0,0,0,416.5,409.73ZM339.71,534.2s0,.42,0,.82c.05,1.49.38,1.82,1.85,1.81a4.49,4.49,0,0,0,1.65-.19c.45-.19,1.06-.64,1.11-1a13.74,13.74,0,0,0,0-3.33,1.57,1.57,0,0,0-.9-1C341.14,530.43,339.7,531.45,339.71,534.2ZM410.51,412a1.13,1.13,0,0,0-1,1.8c1,2,2.15,3.9,3.26,5.84.47.83,1.12,1.14,2,.53a1.38,1.38,0,0,0,.35-2.09c-1.19-1.79-2.37-3.59-3.61-5.35A3.76,3.76,0,0,0,410.51,412ZM336,410.45c-1.33.44-1.19,1.3-1.23,2.05-.18,3.19-.36,6.37-.51,9.55,0,.85-.29,2,.95,2.06s1-1.21,1-2c0-3.35.07-6.7.07-10.05A9.55,9.55,0,0,0,336,410.45Zm13.48-.09-.67.07a3.2,3.2,0,0,0-.36,1c0,3.74,0,7.49,0,11.23,0,.08,0,.18,0,.23.31.41.63.8.95,1.2a11.52,11.52,0,0,0,1-1.11c.12-.16,0-.46,0-.7-.15-3.42-.3-6.84-.49-10.26A8.5,8.5,0,0,0,349.46,410.36Zm19.82-.26c.21,3.63.94,7,1.47,10.41a.32.32,0,0,0,.1.21c.26.16.57.46.78.41a1.43,1.43,0,0,0,.86-.65,2.06,2.06,0,0,0,.06-1.16c-.46-2.49-.93-5-1.45-7.46C371,411.12,370.87,410.24,369.28,410.1Zm-54,12.23c1.72-3.84,1.82-7.59,2.67-11.13.07-.28-.19-.64-.45-1.39a7.78,7.78,0,0,0-1,1.66c-.76,3.22-1.47,6.46-2.15,9.7C314.27,421.35,314.66,421.62,315.25,422.33Zm-20.89-11.59c-.5-.41-.85-.93-1.16-.91a3.19,3.19,0,0,0-1.92.62,11.45,11.45,0,0,0-1.6,2.35c-.39.64-.34,1.32.37,1.61s1.69.51,1.9.24A36.25,36.25,0,0,0,294.36,410.74Zm5.09-1.09c-.54.32-.92.41-1,.63-.91,1.75-1.81,3.51-2.61,5.3-.13.3.23.81.37,1.22.47-.17,1.21-.22,1.37-.55.83-1.77,1.53-3.61,2.23-5.45C299.86,410.58,299.63,410.24,299.45,409.65Zm96.12,3.83a1.78,1.78,0,0,0,1.8-1.57,2.42,2.42,0,0,0-2.45-2.15c-.7,0-1.29.19-1.3,1C393.59,411.85,394.8,413.49,395.57,413.48Zm-7.45-3.89c-.38,2.37.66,3.92,1.3,5.54.09.22.91.4,1.19.24a1.27,1.27,0,0,0,.44-1.16,32.31,32.31,0,0,0-1.57-3.7C389.34,410.22,388.89,410.09,388.12,409.59Zm35.41.32c-.23,1.35.25,2.19,1.38,2.16a1.84,1.84,0,0,0,1.85-2.16Zm-138.21,2.93a12.4,12.4,0,0,0,1.28-2.2c0-.17-.68-.83-1.07-.85-.86,0-1.6.47-1.49,1.4C284.09,411.66,284.68,412.06,285.32,412.84Zm-33.58-3-2.44.13c0,1.28.44,1.92,1.38,1.86S252,411.05,251.74,409.82Zm149.76-.33c-.17.36-.34.57-.33.76s.24.42.38.42a.59.59,0,0,0,.45-.36C402,410.18,401.81,410,401.5,409.49Z" transform="translate(0 0)"/><path d="M336.19,601.76c-9.55,0-19.11,0-28.66,0-9.08,0-18.16-.12-27.25-.13-7.18,0-14.37.12-21.55.12s-14.38-.09-21.57-.1c-6.15,0-12.31.09-18.47.1-5.29,0-10.59,0-15.88,0H171.06l-15.62.05H139.79c-2.6,0-5.2,0-7.81,0a6.1,6.1,0,0,1-6-4.51,5.93,5.93,0,0,1,3.32-7,6.75,6.75,0,0,1,2.55-.51q22.14,0,44.28,0c13.88,0,27.76,0,41.64,0l41.88,0,41.64,0c14,0,27.92,0,41.88,0s27.76,0,41.64,0,27.93,0,41.89,0,27.76,0,41.64,0,27.92,0,41.88,0c10.05,0,20.1,0,30.15-.06a5.87,5.87,0,0,1,5.81,3.45,6,6,0,0,1-5.34,8.54c-6.17,0-12.33-.1-18.49-.09-8,0-16.06.12-24.09.12-7.33,0-14.67-.11-22-.12-6.16,0-12.32.08-18.48.09-5.3,0-10.59,0-15.89,0H426.46c-5.45,0-10.91,0-16.36,0-5.21,0-10.42.05-15.62.05s-10.59,0-15.89,0H363l-15.89,0H336.19Z" transform="translate(0 0)"/><path d="M338.41,817.58H310.92c-9.55,0-19.11,0-28.67,0-8.13,0-16.26.13-24.4.14s-16.27-.1-24.41-.1c-6.16,0-12.31.08-18.47.09-5.3,0-10.59-.06-15.89-.06s-10.41.05-15.62.06H167.81c-3.56,0-7.11,0-10.66,0a6.1,6.1,0,0,1-6.08-4.79,5.86,5.86,0,0,1,3.19-6.58,7.28,7.28,0,0,1,3-.6q28.61,0,57.21,0,32.43,0,64.86.06,35.31,0,70.62-.07,31.59,0,63.19,0,29.55,0,59.12.06c15.8,0,31.6-.05,47.4-.06a5.75,5.75,0,0,1,6.11,6.18,6,6,0,0,1-6.33,5.81c-7.51,0-15,0-22.51,0-7.19,0-14.38-.1-21.57-.1s-14.37.1-21.55.1-14.38-.09-21.58-.09c-6.15,0-12.31.07-18.46.08-5.3,0-10.6,0-15.89,0q-7.69,0-15.39,0c-5.29,0-10.59,0-15.89,0s-10.42-.07-15.63-.08c-4.18,0-8.37,0-12.56,0Z" transform="translate(0 0)"/><path d="M177,637.31c4.05,0,7.75,1,10.79,3.82,3.47,3.22,3.65,7.18.21,10.45a13.82,13.82,0,0,1-5,3.07c-5.5,1.8-10.91,1.48-15.76-2s-4.68-8.72-.06-12.25A15.72,15.72,0,0,1,177,637.31Z" transform="translate(0 0)"/><path d="M384.09,781.46a15.11,15.11,0,0,1-9-3.17c-4.48-3.62-4.41-8.58.16-12.1,5.3-4.1,14.44-4.11,19.76,0,4.66,3.57,4.68,8.63.06,12.26C392.51,780.4,388.86,781.5,384.09,781.46Z" transform="translate(0 0)"/><path d="M245.37,655.67a16.18,16.18,0,0,1-9.44-3c-4.72-3.48-4.82-8.6-.25-12.25,5.27-4.21,14.63-4.24,19.94-.06,4.66,3.67,4.54,8.9-.3,12.39A16.59,16.59,0,0,1,245.37,655.67Z" transform="translate(0 0)"/><path d="M349,637.3c4.26,0,7.75,1,10.7,3.45,3.8,3.16,4,7.59.44,11a13.09,13.09,0,0,1-4.2,2.68,17.35,17.35,0,0,1-14.6-.63,12.52,12.52,0,0,1-3.22-2.43c-3-3.15-2.86-7.21.36-10.16A14.91,14.91,0,0,1,349,637.3Z" transform="translate(0 0)"/><path d="M455.07,763.15a15,15,0,0,1,8.64,3.12c4.5,3.51,4.53,8.65,0,12.09-3.71,2.81-8,3.49-12.5,2.95a13.67,13.67,0,0,1-8.85-4.3c-2.76-3-2.68-6.65.19-9.63C445.24,764.55,449.13,763.09,455.07,763.15Z" transform="translate(0 0)"/><path d="M211,637.31a15.82,15.82,0,0,1,8.88,2.4,13.41,13.41,0,0,1,2.55,2.14,6.54,6.54,0,0,1,.14,9.12,11.42,11.42,0,0,1-5.28,3.59,17.67,17.67,0,0,1-14.39-.82,11.69,11.69,0,0,1-3-2.29c-3.17-3.33-3-7.49.51-10.5A15.27,15.27,0,0,1,211,637.31Z" transform="translate(0 0)"/><path d="M280.31,637.32a16,16,0,0,1,9.48,2.49,12.7,12.7,0,0,1,2.81,2.56,6.34,6.34,0,0,1,0,8.18,11.24,11.24,0,0,1-5.34,3.91,17.76,17.76,0,0,1-14.63-.7,12.11,12.11,0,0,1-3-2.28c-3.24-3.33-3-7.37.44-10.5A15.1,15.1,0,0,1,280.31,637.32Z" transform="translate(0 0)"/><path d="M217.09,742.6a19.21,19.21,0,0,1-9.6-2.08,11.07,11.07,0,0,1-2.16-1.49c-3.91-3.46-3.8-8.3.33-11.51a16.54,16.54,0,0,1,12.9-3.12,15.47,15.47,0,0,1,7.26,2.93c4.41,3.3,4.55,8.51.24,11.95A15.42,15.42,0,0,1,217.09,742.6Z" transform="translate(0 0)"/><path d="M176.7,781.48a15.76,15.76,0,0,1-9.94-3.38c-4-3.28-4-8-.27-11.37,5.31-4.74,15.49-4.84,20.89-.21,4.15,3.56,4.15,8.16-.08,11.63C184.26,780.66,180.64,781.48,176.7,781.48Z" transform="translate(0 0)"/><path d="M354.06,742.6a17.41,17.41,0,0,1-8.09-2,6.49,6.49,0,0,1-.64-.33c-5.92-3.5-6.06-10.11-.13-13.59a16.73,16.73,0,0,1,18,0c6,3.57,5.76,10.29-.42,13.68A17.31,17.31,0,0,1,354.06,742.6Z" transform="translate(0 0)"/><path d="M319.56,742.6a17.6,17.6,0,0,1-8.3-2,12,12,0,0,1-1.42-.88c-5-3.56-4.95-9.21.09-12.67a17.28,17.28,0,0,1,19,0,12.31,12.31,0,0,1,3.06,3.29,5.72,5.72,0,0,1,.09,6.15,9.49,9.49,0,0,1-4,4A17.75,17.75,0,0,1,319.56,742.6Z" transform="translate(0 0)"/><path d="M527.62,679a16.57,16.57,0,0,1,8.69,2.27,11.66,11.66,0,0,1,1.38,1c4.33,3.45,4.29,8.58-.1,12-5.28,4.09-14.44,4.18-19.82.2a11.44,11.44,0,0,1-.94-.75c-3.59-3.38-3.55-7.78.14-11.06A15.44,15.44,0,0,1,527.62,679Z" transform="translate(0 0)"/><path d="M318.37,678.94a17.18,17.18,0,0,1,8.69,2.28,10.93,10.93,0,0,1,1.39.94c4.46,3.57,4.39,8.65-.16,12.13-5.34,4.09-14.68,4-20-.13-4.35-3.41-4.37-8.55,0-12A16.2,16.2,0,0,1,318.37,678.94Z" transform="translate(0 0)"/><path d="M215.74,679a15.64,15.64,0,0,1,9,3.16c4.56,3.49,4.49,8.84-.15,12.25a16.11,16.11,0,0,1-8,2.89,17.22,17.22,0,0,1-10-1.88c-2.9-1.53-5.16-3.73-5.16-7.21s2.16-5.53,4.95-7.1A18,18,0,0,1,215.74,679Z" transform="translate(0 0)"/><path d="M456.68,679a17.6,17.6,0,0,1,9.65,2.39c6,3.64,6,10.35-.17,13.73-5.73,3.15-11.61,3-17.42,0a5.58,5.58,0,0,1-.6-.39c-5.3-3.53-5.4-9.31-.2-13A16,16,0,0,1,456.68,679Z" transform="translate(0 0)"/><path d="M315.89,763.14a14.62,14.62,0,0,1,8.85,3.22c4.45,3.62,4.39,8.64-.24,12.09-3.73,2.77-8,3.41-12.52,2.84a14.22,14.22,0,0,1-7.62-3.2c-4.19-3.54-4.07-8.39.26-11.79C307.35,764.16,310.63,763.13,315.89,763.14Z" transform="translate(0 0)"/><path d="M245.74,763.13a16,16,0,0,1,8.89,2.39c5.85,3.83,6.06,9.74.08,13.44-5.81,3.59-12,3.43-18,.12a7.76,7.76,0,0,1-1.53-1.15c-3.95-3.55-3.84-8.12.27-11.49A15.49,15.49,0,0,1,245.74,763.13Z" transform="translate(0 0)"/><path d="M389.89,742.6a17.29,17.29,0,0,1-8.27-2.08,11.87,11.87,0,0,1-1.8-1.18c-4.39-3.51-4.25-8.79.3-12.12a17.52,17.52,0,0,1,19.6-.06c4.67,3.35,4.79,8.73.27,12.28A17,17,0,0,1,389.89,742.6Z" transform="translate(0 0)"/><path d="M285.67,742.61a17.74,17.74,0,0,1-8.3-2,9.54,9.54,0,0,1-1.24-.72c-5.23-3.64-5.2-9.4.06-13a17.43,17.43,0,0,1,18.58-.1,11.46,11.46,0,0,1,1,.69c4.22,3.38,4.24,8.47,0,11.81A16.33,16.33,0,0,1,285.67,742.61Z" transform="translate(0 0)"/><path d="M488.45,637.31a14.82,14.82,0,0,1,9.41,3.36c4.25,3.51,4.2,8.34-.09,11.8-5.26,4.23-14.91,4.24-20.19,0-4.4-3.52-4.41-8.4,0-12C480.5,638.18,483.93,637.3,488.45,637.31Z" transform="translate(0 0)"/><path d="M487.86,763.12a15.53,15.53,0,0,1,10.2,3.5c3.93,3.37,4,7.92,0,11.33a14.32,14.32,0,0,1-7.82,3.33c-4.5.57-8.76-.06-12.5-2.86a7.41,7.41,0,0,1-.91-.77c-3.52-3.37-3.47-7.59.15-10.84C480,764.1,483.67,763.16,487.86,763.12Z" transform="translate(0 0)"/><path d="M280.83,763.19a15.33,15.33,0,0,1,10.05,3.2c4.29,3.47,4.3,8.3,0,11.8-5.19,4.25-14.68,4.41-20,.32a12.83,12.83,0,0,1-1.57-1.47c-2.78-3.06-2.73-6.61.12-9.64a14.35,14.35,0,0,1,9.41-4.2C279.54,763.14,280.19,763.19,280.83,763.19Z" transform="translate(0 0)"/><path d="M385.22,637.31a15.45,15.45,0,0,1,10.41,3.57c3.71,3.23,3.88,7.39.37,10.84-3.1,3-7,4-11.22,3.93a15.6,15.6,0,0,1-9.24-2.82c-5.11-3.7-5.06-9.28.16-12.83A16,16,0,0,1,385.22,637.31Z" transform="translate(0 0)"/><path d="M314.34,655.67a15.9,15.9,0,0,1-9.77-3.2c-4.38-3.46-4.36-8.47,0-12,5.5-4.38,15-4.31,20.3.16,4.29,3.59,4.15,8.57-.32,12A17.17,17.17,0,0,1,314.34,655.67Z" transform="translate(0 0)"/><path d="M424,742.6a17.93,17.93,0,0,1-8.47-2.07c-.21-.11-.43-.21-.63-.34-5.79-3.54-5.9-10-.06-13.47a16.7,16.7,0,0,1,18.16.08c5.82,3.52,5.62,10-.26,13.44A16.83,16.83,0,0,1,424,742.6Z" transform="translate(0 0)"/><path d="M457.24,742.59a17,17,0,0,1-7.14-2.12,11.44,11.44,0,0,1-2-1.36c-4-3.49-3.86-8.38.32-11.69,5.47-4.34,14.94-4.29,20.35.11,4.18,3.39,4.13,8.51-.13,11.85C466.13,741.38,462.11,742.63,457.24,742.59Z" transform="translate(0 0)"/><path d="M492.57,742.61a17.26,17.26,0,0,1-8.5-2.14,11.24,11.24,0,0,1-1.6-1c-4.46-3.44-4.42-8.75.08-12.11a17.44,17.44,0,0,1,19.38-.36,8.54,8.54,0,0,1,.78.56c4.09,3.64,4.38,7.89.09,11.66C499.93,741.7,496.32,742.48,492.57,742.61Z" transform="translate(0 0)"/><path d="M419.27,763.12a15.68,15.68,0,0,1,10.14,3.45c3.84,3.22,4,7.78.29,11.17a10.65,10.65,0,0,1-2.53,1.79,17.37,17.37,0,0,1-16.11.05,12.17,12.17,0,0,1-3.38-2.6c-2.76-3-2.66-6.73.19-9.63C411,764.19,414.9,763.13,419.27,763.12Z" transform="translate(0 0)"/><path d="M142.26,678.89c4.65.16,8,1,10.9,3.25,4.54,3.51,4.43,8.87-.25,12.26-5.28,3.82-13.91,4-19.2.18a12.11,12.11,0,0,1-2.91-3.1,6,6,0,0,1,0-6.77,10.82,10.82,0,0,1,6.18-4.66A41.1,41.1,0,0,1,142.26,678.89Z" transform="translate(0 0)"/><path d="M388.82,697.37a17.18,17.18,0,0,1-9.73-3c-4.76-3.47-4.78-8.86-.06-12.4,5.37-4,14.15-4.07,19.57-.07.26.19.51.38.75.59,3.9,3.48,3.81,8.26-.28,11.53C396.08,696.44,392.52,697.23,388.82,697.37Z" transform="translate(0 0)"/><path d="M182.87,742.6a18.57,18.57,0,0,1-9.4-2.15,12.12,12.12,0,0,1-1.6-1c-4.39-3.4-4.36-8.87.15-12.12a16.74,16.74,0,0,1,12.73-2.88,15.62,15.62,0,0,1,7,2.83c4.54,3.37,4.67,8.6.24,12.11A15.67,15.67,0,0,1,182.87,742.6Z" transform="translate(0 0)"/><path d="M250.45,743c-2.45-.64-4.86-1.15-7.19-1.92a9.74,9.74,0,0,1-3-1.85c-4.15-3.45-4.05-8.6.28-11.81a16.14,16.14,0,0,1,12.71-2.94,18.66,18.66,0,0,1,5.82,2,12.71,12.71,0,0,1,3.78,3.53c1.64,2.22,1.44,4.63,0,7a10.08,10.08,0,0,1-5.35,4.24C255.22,742,252.86,742.37,250.45,743Z" transform="translate(0 0)"/><path d="M211.2,763.18a15.37,15.37,0,0,1,10,3.26c4.17,3.43,4.2,8.18.09,11.65-5.19,4.37-14.81,4.55-20.14.37a11,11,0,0,1-1.23-1.13c-3.17-3.33-3-7.43.41-10.52a15,15,0,0,1,8.93-3.62C209.92,763.13,210.56,763.18,211.2,763.18Z" transform="translate(0 0)"/><path d="M350.67,763.15a14.82,14.82,0,0,1,8.86,3.28c4.09,3.35,4.25,8,.27,11.48s-8.42,4-13.27,3.36a13.66,13.66,0,0,1-8.11-3.76c-3.34-3.3-3.25-7.52.25-10.68C341.42,764.35,345.09,763.09,350.67,763.15Z" transform="translate(0 0)"/><path d="M283.48,679a17.36,17.36,0,0,1,9.39,2.14,12.7,12.7,0,0,1,3,2.37c2.6,2.89,2.65,6.06.23,9.1s-5.81,4.12-9.43,4.63a17.61,17.61,0,0,1-10.87-2.07,9.46,9.46,0,0,1-1-.66c-5-3.62-4.9-9.18.12-12.7A16.26,16.26,0,0,1,283.48,679Z" transform="translate(0 0)"/><path d="M353.12,697.36a18.62,18.62,0,0,1-8-1.87,8.53,8.53,0,0,1-.85-.44c-6.69-4.35-5.63-10.55.22-13.85a16.79,16.79,0,0,1,17.15,0c2.7,1.47,4.8,3.62,4.79,6.94s-2.17,5.55-4.93,7.12A17.75,17.75,0,0,1,353.12,697.36Z" transform="translate(0 0)"/><path d="M454,637.3a15.61,15.61,0,0,1,9.9,3.34c4.23,3.45,4.18,8.43-.09,11.82-5.36,4.24-14.85,4.26-20.2,0-4.28-3.37-4.44-8.06-.38-11.64C446.31,638.19,450,637.28,454,637.3Z" transform="translate(0 0)"/><path d="M419.64,637.3a15.21,15.21,0,0,1,9.83,3.51c3.71,3.12,3.88,7.35.52,10.84a11.91,11.91,0,0,1-5.29,3.14,17.47,17.47,0,0,1-13.49-.95,13,13,0,0,1-3.57-2.74c-2.79-3.07-2.58-6.91.45-9.79S414.89,637.29,419.64,637.3Z" transform="translate(0 0)"/><path d="M491.27,679a17,17,0,0,1,8.7,2.23,12.94,12.94,0,0,1,1.39.93c4.46,3.45,4.45,8.71,0,12.13a15.47,15.47,0,0,1-6.79,2.8,17.5,17.5,0,0,1-11.16-1.57,11.91,11.91,0,0,1-1.83-1.14c-4.73-3.51-4.7-8.85.05-12.39A16.63,16.63,0,0,1,491.27,679Z" transform="translate(0 0)"/><path d="M248.56,679a18.22,18.22,0,0,1,9.27,2.12c.14.08.29.14.42.22,5.3,3.42,6.72,9.08.33,13.49-5.19,3.59-13.69,3.35-18.83-.29a8.86,8.86,0,0,1-3.34-4.26c-1-2.71.1-5.8,2.67-7.87A15.9,15.9,0,0,1,248.56,679Z" transform="translate(0 0)"/><path d="M423,678.93a16.38,16.38,0,0,1,9.51,3c4.84,3.57,4.76,9.12-.15,12.54a18,18,0,0,1-18.64.42,12.4,12.4,0,0,1-1.17-.84c-4.24-3.47-4.26-8.41,0-11.82A16.24,16.24,0,0,1,423,678.93Z" transform="translate(0 0)"/><path d="M180.78,678.94a16.75,16.75,0,0,1,8.69,2.29,11.33,11.33,0,0,1,1.76,1.23c4,3.4,3.9,8.19-.13,11.52a15,15,0,0,1-7.65,3.15,16.73,16.73,0,0,1-12.12-2.56c-5.13-3.47-5.13-9.28,0-12.81A16.63,16.63,0,0,1,180.78,678.94Z" transform="translate(0 0)"/></svg>