<svg viewBox="0 0 900 900" xmlns="http://www.w3.org/2000/svg"><path d="M617.18 49.88l-11.723 8.84c-6.306 4.755-15.564.44-23.268 1.15-18.276 1.683-40.249-.766-59.789 13.09-7.366 5.223-13.048 12.544-20.016 18.285-12.154 10.015-18.892 24.858-22.271 39.94-2.32 10.355-1.957 20.991-.057 31.362 1.685 9.192 6.725 19.55 1.705 28.215-4.064 7.017-8.072 14.055-10.096 21.86-1.622 6.257-3.788 12.694-8.6 17.163-6.248 5.804-10.876 12.951-16.253 19.488-21.58 26.2-36.204 52.85-30.75 89.73 2.246 9.673 9.035 17.145 16.56 23.21 9.267 7.467 21.359 9.14 32.847 8.472 6.611-.385 14.403-4.611 19.957-.125 5.388 4.352 1.081 12.518 1.379 18.662.497 10.269-8.097 19.348-17.627 20.578-11.865 1.531-23.932.882-35.863.16-7.73-.468-16.051 2.97-23.098-1.06-4.783-2.736-4.632-9.49-4.156-14.462.447-4.674.8-9.951-3.852-13.037-5.471-3.63-11.977 2.96-16.643-1.65-4.604-4.55-2.188-11.362-1.916-16.996.306-6.334-6.045-9.207-11.713-8.176-6.272 1.142-14.983 2.082-15.672 9.639-.439 4.815-3.111 16.114-9.07 10.838-5.076-4.494-.58-12.384-3.6-18.045-4.078-7.642-16.624-5.61-19.357 1.754-2.118 5.706 1.981 14.714-5.152 18-4.84 2.23-10.616 1.013-15.822.469-19.144-2.001-38.44-3.032-57.686-1.032-7.13.742-8.808 8.163-10.13 14.141-2.374 10.744-5.96 21.161-7.812 31.994-26.043 159.58-86.423 360.16 127.52 419.4 17.056 1.56 33.903 4.74 50.938 6.403 75.613 6.47 166.92-3.438 211.9 3.103 44.98 6.542 52.937 5.625 60.83 4.823 6.43-.654 14.13 2.03 19.266-2.522 4.89-4.334.62-9.808 1.44-15.57.98-6.889.233-13.773-1.668-20.434-1.675-5.869-4.461-12.543-10.69-14.29-13.52-3.795-26.69-8.754-39.104-15.425-10.271-15.756-23.598-16.509-35.387-23.508-5.652-6.49-13.73-11.544-16.357-20.047-2.429-7.86 3.694-14.8 6.66-21.69 2.96-6.876-2.401-14.215.33-20.755 6.232-14.923 22.911-9.3 27.617-42.932 5.99-42.81-48.446-87.382-40.67-97.818 5.35-3.732 13.067-4.62 16.457-10.72 3.268-5.883-2.365-11.732-1.748-17.663.698-6.71 8.91-9.543 14.426-11.793 19.291-6.215 25.238-29.81 9.012-43.443-7.351-4.928-16.956.742-23.877-4.17-9.531-6.765-15.495-18.098-17.455-29.66-1.27-7.487-2.016-17.346 4.726-22.238 6.773-4.915 19.341-4.845 25.684-10.79 7.704-7.223 6.8-18.479 8.104-28.189.865-6.445.109-13.132-4.518-17.918-7.667-7.93-21.744-11.77-28.025-20.957-4.414-6.456 5.178-14.109 2.115-20.79-3.73-8.142-10.43-20.378-3.287-26.413 5.203-4.395 6.128-9.474 3.432-17.508-1.93-5.751 9.213-5.706 14.275-5.25 71.659-9.836 81.004-57.897 73.459-90.012-2.815-8.531-2.15-17.96 2.412-25.432 19.928-33.44 17.941-67.592-14.924-99.75-15.334-15.004-37.08-20.427-53.352-8.5zm-45.412 25.85c4.12.051 8.22.542 12.23 1.617 5.888 1.58 7.884 8.882 5.232 13.945-2.749 5.25-9.169 5.699-14.277 6.53-26.003 4.172-42.784 21.141-40.875 48.655 1.4 13.927 5.467 28.512 15.246 38.85 13.262 14.02 31.46 23.168 50.537 26.754 19.83 3.728 40.41-12.382 41.43-32.312.278-5.424.136-13.12 6.09-15.23 4.88-1.728 10.978-1.045 15.354 2.038 4.769 3.36 4.077 10.05 5.074 15.184 2.002 10.306.417 21.195-4.289 30.434-3.4 6.675-8.024 13.544-14.828 17.104-13.737 7.185-33.8 19.595-68.594 6.99-28.233-10.208-46.56-25.004-60.607-54.811-4.793-9.072-5.803-19.225-8.072-28.984-3.668-15.775 1.043-31.881 6.785-46.525 5.522-14.084 18.762-23.903 33.17-27.527 6.615-1.664 13.53-2.795 20.395-2.71zm33.586 16.201c.69-.074 1.227.811 1.385 3.186.528 7.93 7.408 14.483 4.39 22.27-.713 1.84-3.617 2.155-5.109 1.072-5.485-3.983-6-11.737-5.055-17.72.606-3.833 2.87-8.644 4.389-8.808zm-27.672 14.506c5.842-.201 8.935 6.66 3.975 10.84-5.7 4.802-14.482 2.665-19.11 8.478-10.51 14.065-.636 43.702 15.14 55.658 12.967 8.465 20.625 15.355 3.443 12.744-21.74-3.304-56.443-60.652-19.109-81.12 4.695-2.394 9.144-5.442 14.459-6.461.412-.08.814-.126 1.203-.14zm-77.711 5.406c2.454-.25 3.103 6.838 2.36 10.45-8.356 40.556 11.154 84.005 42.878 110.82 7.276 6.15 17.114 8.435 23.221 15.726.538.643-.928 1.512-1.72 1.545-5.806.243-11.17-2.835-16.701-4.299-5.932-1.57-10.465-6.16-15.578-9.34-27.098-17.383-43.781-63.97-43.143-99.498 1.343-7.87 1.639-16.456 6.19-23.234.978-1.458 1.806-2.103 2.493-2.173zm117.15 13.381c5.895.167 11.248 7.665 11.723 13.932.417 5.506-6.688 1.585-8.059-1.408-1.788-3.904-11.803-11.465-4.85-12.457a6.976 6.976 0 011.186-.066zm11.59 46.227c1.967-.1 3.475 1.017 3.342 3.973-.36 7.963-2.474 17.11-9.16 22.213-3.884 2.963-9.362 1.99-14.164 2.584-6.234.77-9.423-9.671-2.291-9.485 6.935.182 13.589-5.285 14.11-11.56.335-4.017 4.885-7.559 8.163-7.725zm-136 32.332c1.312-.027 2.583.666 3.58 2.381 3.712 6.383-2.931 13.645-2.914 20.598.005 2.173-1.11 5.504-3.457 4.697-6.22-2.137-2.372-11.159-3.938-16.168-1.521-4.869 2.793-11.427 6.729-11.508zm16.576 34.918c3.576.15 7.217 2.087 7.04 5.477-.317 6.033-13.006 5.783-13.694-.215-.433-3.77 3.078-5.41 6.654-5.262zm-28.035 15.402c10.308-.118 19.991 7.416 30.486 7.131 5.364-.146 11.601 2.801 11.893 8.367.609 11.614 3.472 23.912-.883 34.984-4.948 12.581-16.119 21.441-27.074 29.445-5.211 3.808-10.396 7.492-16.648 8.707-3.973.773-7.897 1.794-11.95 2.08-8.5.6-18.28-4.364-19.513-13.008-2.994-20.998-4.424-29.274 11.848-58.996 4.342-7.931 9.025-16.064 17.383-18.146a19.255 19.255 0 014.46-.564zm65.691 3.526c.903-.018 1.882.23 2.937.808 6.197 3.396 14.406 3.142 18.662 8.742 3.687 4.851 1.905 11.892 1.422 17.816-.622 7.64 3.433 14.568 1.04 22.531-1.634 5.434-8.781 5.963-10.382 1.442-2.002-5.657 1.133-11.66.465-17.58-.72-6.389-7.401-8.074-12.725-6.922-7.78 1.683-9.693-7.194-9.271-13.656.343-5.256 2.978-13.087 7.851-13.182zm5.994 70.04c7.667.108 9.709 12.068 4.47 17.312-1.99 1.992-4.966 3.118-7.55 1.914-8.196-3.82-5.857-19.35 3.08-19.225zm23.027 3.495c.42.034.877.2 1.367.527 2.701 1.8 2.207 8.283-1.125 9.443-4.912 1.712-4.295-10.299-.242-9.97zm-50.029 17.41c2.618-.136 4.782.863 4.34 3.714-1.148 7.409-7.95 12.877-13.822 17.38-5.085 3.898-6.602 10.297-5.567 16.365 1.009 5.908 2.256 13.86-3.134 17.916-3.976 2.99-9.759-1.3-10.908-5.577-2.564-9.537 4.195-18.21 7.373-26.84 1.462-3.97 2.802-8.085 5.933-11.105 2.99-2.883 6.097-5.529 8.717-8.752 1.377-1.694 4.45-2.965 7.068-3.101zm23.576 10.119c4.296.016 8.765.708 12.934.824 6.265.174 11.936 10.219 4.732 12.137-7.127 1.898-14.673 1.233-22.03 2.018-6.273.668-12.86-7.766-7.522-11.746 3.47-2.588 7.591-3.249 11.887-3.233zm39.307.513c4.668.158 9.947 6.124 8.184 11.184-.198.567-.649 1.056-1.18 1.332-6.23 3.237-16.02-7.289-10.045-11.615.918-.664 1.964-.937 3.041-.9zm-219.8 9.66c.878-.046 1.646.64 1.914 2.583.21 1.517-.769 3.163-2.289 3.394-5.881.894-2.258-5.835.375-5.977zm232.41 12.278c1.116-.04 2.298.49 3.5 1.804 4.485 4.907 5.314 14.93-.478 19.438 0 0-.405.339-.623.485a10.11 10.11 0 01-.682.386c-5.849 3.319-8.783-4.487-8.8-9.894-.016-4.688 3.1-12.077 7.083-12.22zm-70.24 1.394c4.42-.115 9.38 2.247 13.902 2.7 11.441 1.144 23.46-1.384 34.36 2.472 6.385 2.259 8.038 11.872 5.093 17.318-3.292 6.087-12.04 3.91-18.19 4.478-9.511.88-19.075 1.16-28.634 1.237-6.198.05-15.201.675-17.637-6.002-2.718-7.452.5-17.447 6.902-21.1 1.316-.751 2.73-1.065 4.203-1.104zm-212.38 17.318c.95.038 1.881.789 2.545 2.686.686 1.958-.499 3.883-2.248 4.314-7.334 1.806-3.69-7.136-.297-7zm-51.049.463c9.65-.115 24.395 6.677 31.695 7.172 2.46 5.933 12.78 17.82 6.461 65.547-5.573 42.099-11.304 90.407-14.24 136.57-.728 6.694-3.379 14.5-10.148 16.506-6.81 2.017-15.087 3.589-18.541 10.23-9.818 19.352-9.964 46.234 13.506 58.285 7.27 6.504 8.941 17.239 15.83 24.252 8.034 7.73 42.425 11.506 57.58 12.082 13.307-.955 27.398-1.395 39.287-8.313 5.75-3.346 10.241-8.426 12.746-14.516 2.435-5.919 8.3-8.88 12.971-12.705 11.145-9.124 20.99-21.602 22.41-36.53 1.003-10.546-6.758-18.762-13.83-25.542-6.045-5.796-16.251-8.788-17.932-17.516-8.495-47.95-4.626-100.71-9.803-152.31.375-9.596 6.392-19.669 14.951-21.459 25.905-5.415 52.865.2 79.156 2.87 5.159.523 14.166 1.93 12.941 8.304-1.356 7.062-7.33 12.376-12.896 16.95-5.576 4.581-13.22 3.794-19.14 7.312-9.18 5.454-9.568 18.26-6.262 27.613 2.216 6.271 8.195 9.43 13.844 11.607 6.673 2.571 11.29 8.347 13.764 14.945 2.271 6.059 2.534 12.913 6.572 18.195 3.156 4.128 7.673 8.886 5.648 14.64-5.094 14.478-13.779 27.366-23.959 38.663-7.016 7.786-12.494 17.003-14.848 27.227-3.596 15.624-3.376 32.533 3.104 47.484 3.316 7.652 8.649 13.957 13.088 20.877 4.376 6.823 1.228 15.43 4.62 22.38 2.938 6.018 8.125 13.165 4.34 19.649-6.932 11.88-19.418 15.885-27.7 30.256-5.973 5.633-12.323 11.23-20.223 13.8-12.53 4.077-25.458 7.723-38.646 8.284-10.247.435-17.986 7.4-25.164 13.654-2.594 2.26-6.214 3.025-9.545 3.13-71.005-4.32-127.8-53.221-141.25-123.88-16.943-89.04 12.093-159.01 25.864-266.4 1.382-6.328 1.945-14.158 8.031-17.976 1.53-.925 3.486-1.318 5.713-1.344zm115.13 1.465c1.978.035 3.448 1.346 3.201 4.623-.646 8.58-11.078 15.07-18.488 11.703-4.986-2.266-14.283-2.939-11.523 4.365 2.857 7.56 11.338 12.576 19.562 12.789 7.13.184 13.276-3.848 18.29-8.416 4.556-4.151 10.692-5.258 16.618-5.455 33.766-1.124 67.575-2.154 101.36-1.03 7.224.241 8.95 13.409 1.957 14.257-12.08 1.465-24.358.113-36.494-.77-19.84-1.444-39.534-3.86-59.45-5.482-8.723-.711-15.759 7.125-23.095 11.633-6.535 4.016-14.816 9.653-22.457 6.039-5.53-2.616-12.076-2.007-16.877-5.781-5.466-4.298-6.33-12.166-6.502-18.79-.132-5.063-.224-15.675 6.584-14.255 7.265 1.515 15.855 2.928 21.062-2.399 1.785-1.826 4.272-3.066 6.25-3.031zm172.44 19.234c3.234.055 6.79 1.079 9.934.64 5.175-.721 10.087 2.123 10.24 7.598.297 10.595.01 21.544 3.916 31.652 1.828 4.732 9.563 9.607 4.72 14.844-1.166 1.261-2.928 1.294-4.568 1.402-14.358.953-28.772.192-43.145-.263-6.468-.205-13.001-.615-19.42.105-4.46.5-12.08-5.814-7.043-9.08 5.696-3.692 13.343-1.933 20.07-2.22 5.814-.249 12.295 1.816 17.461-1.356 7.113-4.368-6.45-11.13-1.512-16.207 3.73-3.835 1.646-6.94-.709-10.631-2.974-4.66.699-11.916 4.739-15.014 1.55-1.19 3.376-1.504 5.316-1.47zm-60.062 67.553c7.297-.08 14.658.434 21.94.406 29.333-.112 58.686 1.974 87.993.723 6.383-.273 13.957 3.118 13.932 9.927-.025 6.815-8.657 8.851-14.373 6.88-6.06-2.091-12.54.202-18.98-.438-24.27-2.412-48.75-1.27-73.14-1.426-9.73-.062-19.662 2.671-29.222-1.272-5.794-2.39-7.771-12.668-1.184-13.77 4.3-.72 8.655-.982 13.033-1.03zm20.566 27.55c.35-.013.698-.014 1.04 0 19.458.834 38.92.555 58.386.497 4.726-.014 16.09-.02 12.213 6.947-1.237 2.223-3.584 3.723-6.228 3.694-18.172-.206-36.418 1.32-54.578.181-5.765-.361-12.48 1.473-17.166-3.047-4.86-4.685 1.075-8.06 6.334-8.271zm59.463 21.923c5.553.012 13.5 2.333 11.445 8.814-.08.252-.474.267-.736.299-16.017 1.984-32.271 2.386-48.375 1.57-7.005-.355-14.581 3-20.846-.826-5.38-3.286 1.102-9.65 6.94-9.056 16.752 1.704 33.69.159 50.497-.774.346-.02.704-.028 1.074-.027zm-36.043 21.27c5.57.143 11.171 2.134 16.781 2.103 6.444-.035 13.547 2.456 16.135 8.352 7.773 17.709 19.978 32.708 29.967 49.059 7.32 11.984 12.684 26.488 9.084 40.473-3.244 12.603-9.284 27.559-22.299 31.578-13.802 4.263-28.78.635-43.14 1.484-6.316.374-13.03-3.894-18.55.295-1.536 1.166-3.233 2.466-5.117 2.14-6.237-1.076-12.581-2.14-18.848-1.447-6.354.703-12.357-10.41-4.426-11.369 6.809-.823 13.963-.739 20.607 1.079 6.47 1.769 12.938-5.158 7.45-10.955-3.924-4.145 1.395-13.815-5.153-15.82-6.114-1.873-12.658-.338-19.025-1.278-5.41-.799-8.974-8.02-2.059-9.822 6.593-1.718 12.877.505 19.324.21 6-.273 6.047-7.941-.13-8.075-4.774-.104-13.49 1.708-14.084-4.471-.49-5.096 8.215-4.594 12.203-3.514 5.37 1.456 12.15-6.817 7.18-10.82-3.957-3.186-9.876-1.686-14.769-1.394-5.208.31-11.628 3.427-15.586-1.194-5.498-6.419 6.377-7.363 10.943-6.173 6.285 1.637 14.594 2.965 19.67-2.078 5.077-5.045-4.008-10.233-8.947-8.868-4.47 1.237-16.095-.45-12.293-5.853 3.157-4.486 10.68-1.612 16.059-1.695 5.418-.084 10.669-4.026 7.057-9.85-2.973-4.794-8.274-.717-11.164-5.17-2.27-3.496-.892-10.013 3.841-9.219 6.442 1.081 9.774-6.531 15.436-7.463a20.406 20.406 0 013.852-.244zm-48.367 69.959c2.908.102 5.5 1.517 3.836 4.62-1.305 2.435-6.082 2.733-8.24.69-3.595-3.403.665-5.441 4.404-5.31zm-205.99 12.096c.811-.047 1.705.185 2.652.785 6.672 4.225 13.163 9.178 21.084 10.684 7.266 1.38 14.978 2.108 22.23.545 4.541-.979 14.162 6.488 7.887 8.504-13.235 4.252-27.795-.758-41.037-4.844-4.827-1.49-10.056-1.973-14.48-4.424-4.71-2.609-2.715-10.998 1.664-11.25zm108.72 8.021c3.718-.087 12.33 2.474 7.01 5.196-2.246 1.148-4.883 1.147-7.254 1.968-6.823 2.363-6.22-6.234-.43-7.11.2-.031.426-.048.674-.054zm-59.482 33.566a6.654 6.654 0 01-6.654 6.655c-3.675 0-4.655-2.98-4.655-6.655.495-6.478 11.194-3.662 11.31 0zm242 22.756c3.078.012 6.046.547 8.682 2.531 6.737 5.072.99 16.476-7.225 16.31-8.898-.182-17.789 1.761-26.672 1.08-6.84-.525-14.518 1.624-20.49-2.028-6.204-3.793 4.455-7.896 7.627-10.479 7.415-6.037 17.114-7.413 26.107-6.83 3.87.25 8.013-.599 11.971-.584zm-41.18 33.221c7.825.017 15.736 2.387 23.613 2.528 4.625.082 9.276 1.093 12.641 4.232 3.34 3.116 6.76 6.022 10.475 8.697 6.286 4.527 10.972 10.736 15.953 16.598 5.873 6.911 13.464 12.433 21.45 16.678 4.1 2.18 7.824 11.39 1.355 11.787-44.352-.48-97.88-2.373-145.29-.568-6.525 1.825-13.64-8.875-6.286-10.547 12.607-2.867 25.803-2.298 38.732-1.893 5.143.162 14.608.016 13.79-6.707-.707-5.8-8.814-6.578-13.548-5.05-4.384 1.414-16.614-.585-11.605-5.768 4.852-5.021 13.481-1.846 20.201-1.22 6.613.614 8.94-7.857 8.16-13.31-.75-5.26-1.193-13.998 4.956-15.037 1.795-.303 3.596-.423 5.402-.42zm-99.24 70.072c4.448.03 8.9.174 13.326.223 64.117.716 125.14 1.636 198.55 4.066 8.793.291 18.091-1.09 25.723 3.235 5.421 3.071 4.466 12.243.496 16.834-5.228 6.046-14.01 4.4-21.154 4.947-5.644.432-11.27 1.175-16.924 1.063-67.046-1.618-137.44-5.692-207.65-4.536-8.52.918-19.182-.944-23.33-9.232-3.145-6.284 2.797-13.573 8.934-14.867 7.218-1.523 14.616-1.784 22.029-1.732z"/></svg>