<svg height="512" viewBox="0 0 58 60" width="512" xmlns="http://www.w3.org/2000/svg"><path d="M47 0H11a2 2 0 00-2 2v18h40V2a2 2 0 00-2-2zM22 4h14a1 1 0 010 2H22a1 1 0 010-2zm-9 6h3a1 1 0 010 2h-3a1 1 0 010-2zm32 6H13a1 1 0 010-2h32a1 1 0 010 2zm0-4H20a1 1 0 010-2h25a1 1 0 010 2zM57 21a1 1 0 00-1 1v3h-3v-1a2 2 0 00-2-2H7a2 2 0 00-2 2v1H2v-3a1 1 0 00-2 0v8a1 1 0 002 0v-3h3v1a2 2 0 002 2h4a8 8 0 00-8 8v18H2a2 2 0 100 4h54a2 2 0 100-4h-1V38a8 8 0 00-8-8h4a2 2 0 002-2v-1h3v3a1 1 0 002 0v-8a1 1 0 00-1-1zM38 47a3 3 0 114 2.816V51a1 1 0 01-2 0v-1.184A3 3 0 0138 47zm-4-10a3 3 0 114 2.816V41a1 1 0 01-2 0v-1.184A3 3 0 0134 37zm-4 10a3 3 0 114 2.816V51a1 1 0 01-2 0v-1.184A3 3 0 0130 47zm-4-10a3 3 0 114 2.816V41a1 1 0 01-2 0v-1.184A3 3 0 0126 37zm-4 10a3 3 0 114 2.816V51a1 1 0 01-2 0v-1.184A3 3 0 0122 47zm-4-10a3 3 0 114 2.816V41a1 1 0 01-2 0v-1.184A3 3 0 0118 37zm-4 10a3 3 0 114 2.816V51a1 1 0 01-2 0v-1.184A3 3 0 0114 47zm-1-13a2.993 2.993 0 011 5.816V41a1 1 0 01-2 0v-1.184A2.993 2.993 0 0113 34zM9 44a2.993 2.993 0 011 5.816V51a1 1 0 01-2 0v-1.184A2.993 2.993 0 019 44zm43 3a3 3 0 01-2 2.816V51a1 1 0 01-2 0v-1.184A2.995 2.995 0 1152 47zm-4-10a3 3 0 01-2 2.816V41a1 1 0 01-2 0v-1.184A2.995 2.995 0 1148 37z"/><circle cx="25" cy="47" r="1"/><circle cx="21" cy="37" r="1"/><circle cx="29" cy="37" r="1"/><circle cx="33" cy="47" r="1"/><circle cx="37" cy="37" r="1"/><circle cx="9" cy="47" r="1"/><circle cx="17" cy="47" r="1"/><circle cx="13" cy="37" r="1"/><circle cx="49" cy="47" r="1"/><circle cx="41" cy="47" r="1"/><circle cx="45" cy="37" r="1"/></svg>