<?xml version="1.0" standalone="no"?>
<!DOCTYPE svg PUBLIC "-//W3C//DTD SVG 20010904//EN"
 "http://www.w3.org/TR/2001/REC-SVG-20010904/DTD/svg10.dtd">
<svg version="1.0" xmlns="http://www.w3.org/2000/svg"
 width="848.000000pt" height="848.000000pt" viewBox="0 0 848.000000 848.000000"
 preserveAspectRatio="xMidYMid meet">
<metadata>
Created by potrace 1.11, written by Peter Selinger 2001-2013
</metadata>
<g transform="translate(0.000000,848.000000) scale(0.100000,-0.100000)"
fill="#000000" stroke="none">
<path d="M2146 8472 c-4 -7 -7 -227 -5 -352 0 -8 0 -121 0 -250 0 -129 0 -244
0 -255 0 -11 0 -223 0 -472 l-1 -451 -59 -36 c-32 -20 -63 -36 -67 -36 -5 0
-22 -7 -39 -16 -16 -8 -77 -28 -135 -44 -60 -17 -111 -37 -119 -47 -36 -47
-81 -174 -97 -273 -3 -19 -10 -43 -15 -52 -5 -10 -7 -18 -4 -18 3 0 1 -8 -4
-18 -7 -12 -23 -19 -53 -20 -43 -2 -145 -47 -183 -80 -81 -70 -132 -180 -139
-297 0 -11 -9 -21 -18 -23 -16 -3 -18 5 -18 56 0 147 -127 239 -236 171 -76
-47 -74 -29 -74 -537 l0 -454 39 -39 c21 -22 51 -42 67 -45 15 -3 31 -7 36
-10 13 -9 81 17 106 39 40 37 58 79 61 142 3 64 15 90 31 65 5 -8 10 -26 10
-40 0 -14 2 -119 3 -235 2 -115 7 -226 11 -245 8 -34 56 -122 79 -144 50 -49
154 -109 174 -102 9 4 19 -7 30 -32 8 -20 15 -39 15 -42 0 -3 3 -9 8 -15 4 -5
11 -26 16 -45 4 -19 9 -39 11 -45 5 -17 25 -109 29 -135 14 -86 17 -165 18
-520 1 -379 2 -397 23 -447 11 -29 36 -71 54 -95 l34 -42 1 -1361 c0 -1061 3
-1370 13 -1404 14 -50 35 -92 70 -139 l25 -32 2440 0 2441 1 33 48 c18 27 42
72 53 100 18 50 19 90 19 1417 l0 1366 40 60 c51 76 63 123 63 228 -1 75 -4
119 -18 260 -19 190 -22 472 -6 590 20 149 69 289 99 288 19 -1 111 51 140 80
28 28 76 102 92 141 10 25 14 97 15 270 2 245 5 278 30 278 15 0 19 -22 15
-78 -2 -39 29 -106 61 -134 64 -53 141 -50 210 9 l34 29 3 468 3 468 -40 40
c-68 68 -147 70 -212 8 -42 -42 -59 -84 -59 -152 0 -41 -4 -55 -14 -55 -17 0
-25 21 -32 86 -3 28 -20 75 -42 117 -52 97 -135 167 -227 192 -27 8 -39 10
-77 14 -6 0 -9 4 -6 7 3 3 -1 33 -8 67 -8 34 -17 71 -19 82 -2 11 -4 20 -5 20
-2 0 -9 33 -14 60 -5 33 -53 128 -76 153 -11 12 -30 23 -40 23 -25 2 -22 1
-95 23 -71 21 -160 64 -232 112 l-52 34 0 870 c0 478 -2 874 -6 880 -8 12
-4201 14 -4209 2z m4178 -15 c10 -4 12 -268 12 -1260 -1 -691 -4 -1258 -7
-1261 -3 -3 -92 -6 -198 -7 l-193 -1 -26 25 c-43 41 -100 55 -209 53 -102 -3
-140 -14 -177 -55 l-19 -21 -1185 0 c-1141 0 -1185 1 -1201 19 -36 41 -82 55
-186 56 -113 2 -144 -5 -197 -46 l-37 -29 -268 2 -268 3 -1 1262 -2 1262 32 3
c52 5 4117 0 4130 -5z m-795 -2626 c33 -38 89 -53 189 -53 106 1 155 13 193
49 26 24 29 24 218 24 105 0 195 -2 200 -5 9 -6 11 -645 2 -647 -22 -5 -704
-3 -706 2 -2 3 -6 16 -9 30 -15 82 3 79 -568 79 -274 0 -498 3 -499 8 0 4 -2
16 -4 27 -3 11 -7 43 -9 70 -3 28 -5 50 -6 50 -1 0 -3 17 -5 39 -5 48 -15 59
-16 20 -3 -53 -6 -82 -25 -224 -3 -25 -6 -57 -7 -72 0 -15 -5 -29 -11 -31 -6
-2 -99 -3 -206 -3 l-195 1 -7 50 c-14 103 -18 142 -24 210 -7 72 -23 113 -25
60 0 -17 -2 -39 -5 -50 -2 -11 -6 -47 -9 -79 -3 -32 -8 -63 -11 -67 -3 -5
-227 -9 -499 -9 l-493 0 -31 -26 c-22 -18 -31 -35 -31 -55 0 -16 -3 -30 -7
-30 -33 -6 -740 -4 -748 2 -7 5 -10 117 -9 321 1 172 2 316 3 321 0 4 123 7
271 7 255 0 272 -1 292 -20 43 -40 88 -53 179 -52 129 2 179 16 214 59 6 7 37
14 70 15 33 2 568 2 1188 1 1125 -2 1129 -2 1146 -22z m1686 -967 c15 -6 22
-73 8 -75 -25 -4 -5953 -3 -5954 1 -3 16 -5 66 -2 72 4 9 5926 10 5948 2z
m-4304 -499 c1 -8 2 -18 3 -22 1 -5 6 -28 10 -53 5 -25 10 -54 13 -65 19 -88
23 -79 -73 -171 -100 -95 -121 -107 -173 -98 -87 16 -163 75 -207 161 -25 51
-29 69 -29 144 0 58 4 91 14 102 12 15 41 17 227 17 183 0 214 -2 215 -15z
m289 8 c0 -3 -19 -24 -42 -45 -24 -22 -69 -64 -100 -95 -57 -54 -58 -54 -67
-31 -5 14 -12 42 -15 64 -3 21 -9 56 -12 77 l-6 37 121 0 c67 0 121 -3 121 -7z
m97 -1 c14 -9 8 -15 -156 -190 -57 -61 -108 -109 -112 -106 -4 2 -10 17 -14
34 -6 26 0 35 61 92 37 35 79 74 94 88 51 49 101 90 108 90 4 0 12 -4 19 -8z
m103 -2 c0 -5 -2 -10 -4 -10 -3 0 -8 5 -11 10 -3 6 -1 10 4 10 6 0 11 -4 11
-10z m114 2 c2 -4 -8 -21 -24 -38 -21 -24 -31 -29 -44 -22 -21 12 -21 44 2 57
20 12 59 14 66 3z m86 -10 c0 -3 -15 -27 -32 -54 -31 -44 -57 -58 -65 -32 -6
17 67 103 83 97 8 -3 14 -8 14 -11z m144 -3 c-3 -5 -10 -7 -15 -3 -5 3 -7 10
-3 15 3 5 10 7 15 3 5 -3 7 -10 3 -15z m74 -4 c-12 -27 -23 -31 -33 -15 -8 13
13 40 31 40 11 0 11 -5 2 -25z m52 -15 c-7 -16 -16 -27 -21 -24 -5 3 -2 19 7
35 20 39 31 30 14 -11z m80 34 c0 -24 -25 -84 -36 -84 -20 0 -22 22 -6 58 13
27 42 45 42 26z m50 -60 c-7 -24 -16 -44 -20 -44 -18 0 -17 30 2 71 24 53 35
36 18 -27z m135 10 c-6 -67 -10 -74 -36 -74 -18 0 -20 5 -15 38 13 81 17 92
37 92 18 0 19 -5 14 -56z m196 41 c8 -101 -3 -144 -33 -132 -12 4 -16 22 -16
76 0 68 1 71 24 71 14 0 24 -6 25 -15z m118 -46 c1 -23 2 -45 3 -48 2 -20 -4
-32 -14 -29 -7 3 -13 24 -14 49 -1 24 -3 49 -4 54 -6 25 0 37 13 27 7 -6 14
-30 16 -53z m92 54 c0 -5 2 -17 4 -28 14 -74 7 -95 -31 -95 -18 0 -24 5 -25
23 0 12 -2 41 -5 65 -5 41 -4 42 26 42 16 0 30 -3 31 -7z m124 -36 c12 -34 10
-57 -5 -57 -13 0 -33 68 -26 87 8 20 17 12 31 -30z m65 24 c14 -27 13 -61 -3
-61 -14 0 -36 49 -29 68 6 18 20 15 32 -7z m62 -29 c-4 -11 -8 -8 -18 9 -7 13
-10 27 -7 32 8 13 31 -25 25 -41z m66 31 c6 -19 -25 -16 -32 3 -4 11 -1 14 11
12 9 -2 18 -9 21 -15z m228 -9 c13 -18 14 -28 6 -36 -9 -9 -18 -4 -37 18 -30
35 -31 44 -5 44 11 0 27 -11 36 -26z m66 14 c-9 -9 -15 -9 -24 0 -9 9 -7 12
12 12 19 0 21 -3 12 -12z m175 -70 c37 -46 72 -88 78 -94 27 -30 63 -73 93
-111 28 -35 31 -45 22 -68 -12 -32 -21 -27 -62 33 -17 26 -34 49 -38 52 -14
12 -180 252 -180 260 0 24 23 5 87 -72z m133 -20 c98 -101 108 -119 91 -162
-6 -16 -21 -2 -95 85 -83 98 -100 119 -135 162 -12 15 -11 17 13 17 21 0 49
-23 126 -102z m142 97 c3 -3 0 -34 -6 -68 -7 -34 -13 -66 -13 -72 -3 -23 -23
-11 -84 52 -94 98 -94 93 9 93 49 0 91 -2 94 -5z m418 -30 c15 -45 15 -135 0
-183 -26 -82 -93 -156 -173 -190 -30 -12 -31 -12 -129 89 -96 98 -99 102 -93
137 4 21 8 51 11 67 17 125 1 115 199 115 l173 0 12 -35z m-1964 -24 c-11 -51
-26 -77 -26 -48 0 24 24 97 31 97 3 0 1 -22 -5 -49z m139 -13 c-5 -66 -8 -73
-24 -64 -9 6 -4 83 8 124 1 1 5 2 11 2 6 0 8 -25 5 -62z m51 -3 c0 -39 -4 -64
-10 -62 -5 2 -9 18 -9 35 1 18 2 46 2 62 2 60 18 28 17 -35z m141 -4 c3 -38 1
-61 -5 -61 -10 0 -21 99 -13 121 6 20 12 1 18 -60z m210 57 c1 -7 4 -30 8 -50
3 -22 2 -38 -3 -38 -10 0 -22 46 -22 81 0 21 16 27 17 7z m419 -33 c19 -25 24
-39 17 -46 -7 -7 -17 0 -32 24 -37 61 -27 76 15 22z m-1366 5 c0 -6 -16 -34
-35 -62 -26 -40 -36 -48 -41 -35 -3 10 7 34 27 62 31 44 49 56 49 35z m1626
-82 c38 -51 73 -100 79 -109 17 -28 78 -114 85 -119 4 -3 15 -19 25 -37 14
-24 16 -37 8 -55 -9 -21 -21 -7 -156 174 -81 108 -147 204 -147 212 0 13 12
23 31 25 4 1 37 -41 75 -91z m-1926 69 c0 -7 -17 -33 -37 -58 -21 -25 -51 -63
-68 -84 -56 -71 -120 -150 -132 -163 -7 -7 -13 -17 -13 -22 0 -4 -7 -11 -15
-14 -20 -7 -41 35 -29 57 5 8 61 70 124 138 63 67 121 130 128 140 15 22 42
25 42 6z m1614 -21 c19 -41 20 -56 3 -56 -13 0 -48 70 -40 83 9 15 21 6 37
-27z m-1280 -47 c-16 -29 -35 -54 -41 -57 -23 -7 -14 29 19 79 43 66 60 49 22
-22z m1225 9 c18 -41 15 -57 -11 -58 -11 0 -45 74 -40 88 8 25 32 10 51 -30z
m-1496 18 c16 -13 15 -17 -25 -67 -37 -47 -67 -83 -103 -123 -5 -6 -37 -45
-70 -86 -95 -118 -115 -133 -115 -87 0 20 37 73 118 172 10 11 35 42 57 70 22
27 45 55 50 61 6 6 21 25 34 42 27 36 29 37 54 18z m360 2 c4 -14 -23 -81 -35
-86 -5 -2 -8 -10 -8 -18 0 -8 -9 -14 -21 -14 -18 0 -20 4 -15 26 8 32 53 104
65 104 5 0 11 -6 14 -12z m1429 -82 c35 -46 70 -94 78 -106 8 -12 23 -32 32
-43 34 -42 111 -146 122 -164 4 -7 2 -23 -5 -35 -27 -50 -32 -48 -86 36 -28
45 -55 86 -60 91 -5 6 -12 17 -16 25 -4 8 -42 69 -86 136 -60 93 -76 125 -69
138 13 22 18 18 90 -78z m-1371 39 c-4 -5 -15 -31 -25 -57 -10 -27 -21 -48
-26 -48 -11 0 -22 32 -13 39 4 3 18 28 31 55 17 37 26 46 32 36 5 -8 5 -19 1
-25z m1007 2 c15 -42 15 -70 1 -65 -10 3 -38 70 -39 91 0 21 28 2 38 -26z
m-61 -25 c18 -52 16 -72 -5 -72 -25 0 -52 98 -31 111 17 10 20 7 36 -39z
m-888 -41 c-23 -65 -29 -73 -48 -62 -10 6 -11 17 -6 37 5 16 9 31 10 34 3 14
29 56 39 62 21 14 23 -16 5 -71z m-399 37 c0 -5 -53 -82 -117 -171 -64 -89
-132 -184 -152 -211 l-35 -49 -23 27 c-28 32 -29 46 -5 72 9 10 71 84 137 164
163 198 166 201 182 188 7 -6 13 -15 13 -20z m1656 -80 c24 -37 44 -70 44 -73
0 -3 9 -18 19 -33 60 -85 161 -245 161 -255 -1 -13 -34 -57 -44 -57 -3 0 -14
17 -24 38 -22 45 -92 173 -102 187 -4 6 -36 64 -70 130 -35 66 -67 126 -73
132 -5 7 -6 21 -2 30 6 16 9 15 26 -7 11 -14 40 -55 65 -92z m-1180 51 c-3
-22 -10 -48 -16 -59 -6 -11 -7 -20 -3 -20 4 0 1 -4 -7 -10 -23 -14 -40 6 -30
38 28 99 68 134 56 51z m734 25 c18 -46 17 -88 -2 -92 -18 -3 -23 8 -33 76 -6
35 -4 42 9 42 9 0 21 -12 26 -26z m-66 -42 c15 -54 9 -76 -14 -62 -8 5 -12 12
-8 15 3 3 2 24 -3 46 -9 36 -4 67 8 56 2 -3 10 -27 17 -55z m-615 -26 c-8 -47
-15 -66 -26 -66 -12 0 -14 8 -8 38 8 46 33 107 41 100 3 -3 0 -35 -7 -72z
m555 -3 c6 -54 -1 -63 -45 -63 -14 0 -19 7 -19 29 0 16 -3 42 -6 58 -5 24 -2
31 18 40 32 15 45 -1 52 -64z m-470 61 c8 -3 13 -11 11 -17 -2 -7 -6 -34 -9
-61 -3 -27 -10 -54 -15 -59 -10 -10 -54 10 -47 22 3 4 7 25 10 47 8 69 17 81
50 68z m938 -41 c13 -27 38 -73 55 -103 213 -387 204 -369 186 -396 -8 -13
-19 -24 -23 -24 -4 0 -24 33 -44 74 -149 312 -199 414 -212 438 -8 14 -14 33
-14 42 0 32 28 15 52 -31z m-1489 30 c2 -5 -4 -21 -14 -38 -10 -16 -27 -47
-38 -67 -11 -20 -34 -56 -51 -79 -16 -23 -30 -46 -30 -51 0 -5 -5 -14 -10 -21
-21 -24 -90 -138 -90 -147 0 -6 -4 -10 -10 -10 -5 0 -10 -7 -10 -15 0 -8 -4
-15 -10 -15 -5 0 -10 -6 -10 -14 0 -7 -6 -19 -14 -25 -11 -10 -19 -7 -35 10
-12 13 -21 26 -21 30 0 6 213 310 262 374 55 72 71 85 81 68z m630 -21 c0 -12
-1 -43 -2 -68 -1 -41 -3 -45 -23 -42 -13 2 -22 8 -22 13 1 6 5 32 9 59 3 27 8
54 11 58 10 16 28 2 27 -20z m149 -15 c2 -18 1 -49 -1 -69 -3 -32 -6 -37 -25
-34 -18 3 -21 10 -24 61 -1 32 3 64 9 71 17 20 38 5 41 -29z m134 17 c1 -10 5
-36 8 -56 5 -31 2 -39 -14 -48 -16 -9 -20 -8 -21 7 -1 10 -3 36 -5 58 -1 22
-1 46 2 53 6 19 27 10 30 -14z m-220 -54 c-1 -33 -4 -60 -8 -60 -5 0 -12 0
-17 0 -8 0 -5 91 4 118 11 30 22 -1 21 -58z m151 2 c2 -49 -1 -62 -12 -62 -12
0 -15 15 -15 66 0 48 3 65 13 62 7 -3 13 -27 14 -66z m569 31 c4 -10 8 -20 9
-23 1 -3 29 -61 62 -130 33 -69 90 -186 126 -260 l66 -134 -31 -28 c-26 -23
-60 -29 -56 -10 1 4 -5 23 -14 42 -8 19 -21 53 -28 75 -7 22 -16 45 -20 50 -4
6 -11 21 -15 35 -4 14 -18 49 -31 78 -13 29 -24 57 -24 62 0 6 -4 18 -9 28 -8
16 -24 53 -42 97 -4 11 -17 41 -27 67 -15 33 -17 49 -9 57 16 16 34 13 43 -6z
m-1346 -5 c0 -7 -8 -26 -18 -43 -10 -16 -36 -61 -57 -100 -21 -38 -56 -101
-77 -140 -22 -38 -42 -78 -45 -87 -3 -10 -9 -18 -14 -18 -5 0 -9 -7 -9 -16 0
-9 -9 -27 -20 -41 -11 -14 -20 -31 -20 -38 0 -6 -9 -20 -20 -30 -20 -18 -21
-18 -35 1 -21 28 -19 36 35 121 28 43 55 87 60 98 6 11 20 36 33 56 12 20 51
84 87 142 42 68 71 106 83 107 9 0 17 -6 17 -12z m1280 -61 c7 -18 21 -52 32
-77 11 -25 21 -49 23 -55 2 -12 22 -62 35 -90 5 -11 31 -76 59 -145 27 -69 56
-141 65 -161 15 -36 15 -37 -15 -64 -17 -15 -35 -23 -39 -18 -4 4 -40 109 -80
233 -39 124 -74 232 -77 240 -4 8 -7 17 -8 20 -1 3 -7 25 -15 50 -7 25 -17 49
-22 55 -10 11 -11 49 -1 58 10 10 30 -10 43 -46z m-1206 34 c3 -5 -9 -40 -26
-77 -18 -38 -33 -71 -33 -74 -1 -3 -18 -39 -37 -80 -19 -41 -51 -109 -71 -150
-19 -41 -46 -100 -60 -130 -41 -86 -40 -86 -75 -55 -31 27 -34 38 -17 65 5 8
20 35 33 59 12 24 33 62 46 85 12 23 42 77 66 121 24 44 57 103 72 130 16 28
36 65 45 83 16 30 45 43 57 23z m2029 -110 c-2 -2 6 -10 17 -18 11 -8 20 -18
20 -23 0 -14 -96 -5 -111 10 -49 52 -67 81 -62 102 12 49 22 48 81 -11 31 -31
56 -58 55 -60z m-909 87 c2 -7 7 -22 12 -33 4 -11 8 -23 9 -27 2 -5 4 -10 5
-13 1 -3 3 -8 4 -12 3 -12 27 -86 33 -103 4 -8 7 -17 8 -20 4 -18 73 -234 105
-330 34 -105 36 -116 21 -127 -9 -6 -25 -13 -35 -15 -21 -4 -27 12 -86 237
-23 88 -46 168 -51 177 -5 10 -9 26 -9 35 -1 10 -14 63 -29 118 -28 96 -28
125 1 125 5 0 10 -6 12 -12z m-1836 -23 c17 -37 16 -42 -22 -80 -31 -31 -41
-35 -85 -34 -28 1 -51 4 -51 8 -1 7 132 130 141 131 3 0 11 -11 17 -25z m785
4 c0 -8 -12 -43 -26 -79 -13 -36 -52 -137 -85 -225 -33 -88 -66 -173 -73 -190
-7 -16 -13 -34 -15 -40 -7 -30 -36 -85 -44 -85 -5 0 -21 10 -36 23 l-27 23 45
95 c55 114 121 252 123 259 13 37 97 215 107 228 13 16 34 10 31 -9z m992 -62
c4 -23 9 -46 11 -52 36 -123 56 -196 60 -220 3 -16 11 -36 16 -42 6 -7 8 -13
5 -13 -3 0 -1 -15 4 -32 6 -18 12 -41 15 -50 9 -36 14 -54 29 -108 31 -110 30
-117 -10 -136 -20 -9 -38 -15 -40 -12 -8 7 -39 139 -51 213 -2 17 -7 41 -11
55 -10 41 -11 43 -18 90 -4 24 -8 48 -11 51 -2 4 -6 22 -8 40 -3 19 -16 85
-29 147 -23 103 -24 113 -9 121 24 13 38 -2 47 -52z m-919 45 c8 -5 -22 -107
-95 -327 -108 -325 -119 -354 -130 -339 -3 5 -15 14 -26 20 -24 14 -22 28 10
109 13 33 40 103 59 155 19 52 41 109 47 125 7 17 13 32 13 35 1 3 21 56 45
118 43 107 52 121 77 104z m830 -46 c2 -15 16 -80 30 -144 14 -64 34 -162 44
-217 19 -96 23 -121 35 -175 3 -14 7 -35 9 -46 3 -12 9 -38 14 -58 10 -33 8
-38 -12 -52 -27 -17 -65 -26 -67 -16 -3 13 -8 57 -25 196 -3 27 -7 56 -9 65
-2 9 -6 44 -10 76 -4 33 -9 71 -11 85 -5 26 -16 125 -17 148 0 6 -3 12 -6 12
-3 0 -6 14 -5 30 0 17 -2 50 -6 75 -10 67 24 87 36 21z m-749 23 c8 -8 8 -22
-3 -52 -8 -22 -16 -49 -18 -61 -2 -12 -9 -41 -16 -66 -7 -25 -13 -52 -15 -60
-9 -47 -116 -455 -121 -459 -3 -3 -22 4 -42 15 -38 20 -42 34 -23 79 9 20 38
107 45 135 28 106 160 480 170 480 6 0 17 -5 23 -11z m677 -54 c3 -22 9 -80
12 -130 3 -49 7 -92 10 -96 2 -4 7 -31 10 -61 3 -29 8 -56 10 -59 2 -4 6 -22
8 -40 3 -19 7 -55 11 -80 3 -25 7 -57 10 -70 2 -13 6 -51 10 -84 4 -32 8 -62
11 -66 2 -4 -9 -12 -26 -17 -35 -13 -41 -6 -46 46 -3 37 -11 99 -19 143 -2 13
-7 47 -10 74 -7 65 -16 133 -21 165 -2 14 -7 45 -9 70 -3 25 -7 61 -10 80 -23
166 -23 167 8 172 29 5 34 0 41 -47z m-601 33 c2 -7 0 -26 -4 -43 -5 -16 -11
-46 -14 -65 -3 -19 -10 -62 -16 -95 -6 -33 -13 -71 -15 -85 -2 -14 -7 -36 -10
-50 -3 -14 -8 -41 -10 -60 -3 -19 -7 -43 -10 -52 -6 -20 -12 -50 -19 -98 -3
-20 -7 -47 -10 -60 -3 -14 -8 -41 -11 -60 -11 -57 -15 -61 -55 -42 -41 19 -41
20 -28 64 6 18 12 40 14 48 2 8 19 78 39 155 20 77 39 151 42 163 2 13 12 49
20 80 9 32 20 75 25 97 23 95 31 115 44 115 7 0 15 -6 18 -12z m84 -6 c11 -7
11 -27 -1 -112 -4 -25 -8 -61 -10 -80 -2 -19 -6 -48 -9 -65 -3 -16 -8 -57 -12
-90 -3 -33 -8 -67 -10 -75 -2 -8 -6 -35 -9 -60 -17 -139 -36 -263 -42 -269 -2
-2 -22 1 -44 8 -40 12 -41 13 -35 49 3 21 8 49 11 62 2 14 7 39 9 55 3 17 12
64 20 105 8 41 17 87 20 102 3 24 13 76 31 178 3 19 7 40 8 45 2 6 6 33 11 60
14 88 28 109 62 87z m402 -1 c7 -5 14 -24 16 -42 2 -19 6 -56 10 -84 13 -100
14 -111 20 -160 2 -27 7 -59 9 -71 2 -12 7 -45 11 -75 3 -30 9 -72 12 -94 3
-22 7 -49 8 -60 2 -11 6 -45 10 -75 3 -30 8 -57 10 -60 6 -9 -12 -33 -27 -36
-7 -1 -25 -4 -40 -7 -26 -5 -28 -3 -29 31 -2 41 -5 87 -14 207 -3 44 -7 114
-10 155 -6 107 -16 267 -20 320 -5 59 3 71 34 51z m1131 -50 c-1 -9 -6 -26
-13 -39 l-13 -22 -21 24 c-22 25 -23 33 -9 74 l8 24 24 -23 c13 -12 24 -30 24
-38z m-1445 -55 c-3 -56 -8 -132 -10 -171 -2 -38 -6 -95 -9 -125 -3 -30 -8
-102 -11 -160 -4 -58 -9 -125 -10 -150 -2 -25 -4 -49 -4 -53 -2 -15 -82 -3
-91 14 -5 9 -7 18 -5 20 2 3 7 27 11 54 3 28 8 58 9 67 2 9 7 48 10 85 4 37 9
70 10 73 2 3 6 34 10 70 4 36 9 74 11 85 2 10 6 37 9 60 4 22 8 51 10 65 2 14
7 54 10 90 7 65 13 77 41 77 13 0 14 -15 9 -101z m249 -26 c6 -108 10 -181 21
-325 3 -33 7 -104 11 -157 3 -54 7 -105 9 -115 5 -34 -13 -51 -52 -50 l-38 2
0 378 c0 326 2 380 15 387 8 5 18 6 22 2 4 -4 9 -59 12 -122z m-169 -265 l0
-380 -33 -3 c-42 -4 -60 11 -56 46 2 15 6 65 9 112 3 47 8 110 10 140 3 30 7
87 10 125 5 72 14 189 20 260 1 22 3 50 4 63 1 17 6 22 19 20 16 -3 17 -29 17
-383z m86 358 c0 -16 1 -46 1 -68 -1 -22 -1 -179 -2 -348 0 -169 -3 -314 -6
-321 -3 -8 -13 -12 -23 -9 -17 4 -19 26 -19 381 0 208 2 380 5 385 2 4 13 7
24 7 14 0 19 -7 20 -27z m-1307 -12 c14 -27 14 -30 -16 -70 l-31 -42 -18 28
c-11 15 -19 32 -19 38 0 8 59 75 67 75 1 0 9 -13 17 -29z m2521 -75 c13 -19
14 -29 5 -45 -6 -12 -13 -21 -15 -21 -11 0 -34 60 -29 74 9 23 21 20 39 -8z
m-2470 -25 c0 -19 -48 -81 -60 -77 -19 5 -16 35 6 66 23 30 54 37 54 11z
m2411 -39 c29 -19 32 -45 10 -79 -11 -18 -24 -33 -27 -33 -4 0 -14 12 -24 26
-16 25 -16 28 1 60 20 36 23 38 40 26z m-2352 -47 c11 -17 13 -31 7 -47 -9
-23 -48 -65 -54 -57 -2 2 -14 19 -26 37 -24 35 -25 31 18 83 17 21 34 15 55
-16z m2306 -105 c0 -8 -50 -64 -53 -59 -36 45 -37 51 -10 86 l26 34 18 -28
c11 -15 19 -30 19 -33z m-2218 -30 c-3 -8 -14 -28 -25 -43 -19 -27 -20 -28
-39 -10 -38 34 -39 48 -10 86 l27 36 26 -27 c14 -15 24 -34 21 -42z m2115 -22
c22 -28 22 -48 1 -68 -28 -26 -32 -25 -46 6 -10 21 -9 29 5 49 21 28 27 30 40
13z m-2059 -24 c27 -19 27 -30 1 -73 l-21 -34 -24 25 c-25 25 -25 25 -8 61 20
42 22 43 52 21z m1989 -71 c13 -20 12 -24 -18 -52 -39 -38 -47 -38 -60 -4 -9
23 -6 30 18 54 32 31 40 32 60 2z m-1879 -83 l-21 -39 -39 30 c-36 29 -48 49
-30 49 4 0 13 14 19 31 l12 31 40 -31 40 -32 -21 -39z m1777 -10 c5 -21 -1
-29 -31 -49 -30 -21 -37 -22 -45 -10 -16 26 -9 47 23 73 35 27 43 25 53 -14z
m-1689 -2 c16 -12 30 -23 32 -24 2 -1 -1 -10 -7 -21 -5 -10 -12 -26 -15 -37
-6 -17 -7 -17 -34 -1 -46 30 -52 43 -34 76 20 35 22 35 58 7z m1578 -65 c5
-17 3 -29 -6 -35 -53 -36 -68 -33 -68 14 0 17 3 28 6 25 4 -3 16 0 28 8 28 20
33 19 40 -12z m-1471 -6 c25 -20 27 -25 18 -50 -12 -31 -21 -33 -62 -12 -19
10 -27 20 -22 28 4 7 8 14 9 17 3 15 17 40 23 40 3 0 19 -10 34 -23z m1365
-58 c2 -20 -4 -28 -33 -42 -44 -21 -51 -21 -59 -2 -9 24 5 46 38 61 39 17 50
13 54 -17z m-1253 4 c37 -18 44 -38 22 -67 -11 -16 -15 -16 -50 -1 -37 15 -45
33 -31 69 8 20 15 20 59 -1z m1126 -51 c9 -25 -17 -48 -61 -54 -21 -2 -26 2
-28 25 -3 23 1 28 27 33 17 4 31 11 31 16 0 17 23 3 31 -20z m-1006 4 c35 -15
44 -37 26 -65 -7 -11 -15 -11 -45 -1 -44 14 -49 21 -36 54 11 30 10 30 55 12z
m134 -40 c21 -4 35 -30 27 -51 -5 -14 -13 -16 -42 -10 -50 9 -64 24 -51 53 8
17 16 22 31 17 12 -3 28 -7 35 -9z m745 -8 c-1 -10 -2 -22 -3 -26 0 -4 -14 -9
-29 -10 -29 -2 -37 12 -26 46 6 21 59 11 58 -10z m-108 -6 c5 -4 10 -17 10
-29 0 -18 -8 -23 -45 -28 -48 -7 -62 3 -54 37 3 10 8 17 10 14 2 -2 16 0 31 4
36 11 35 11 48 2z m-485 -18 c9 -2 15 -14 14 -27 -2 -20 -7 -22 -49 -21 -56 2
-60 5 -52 39 7 27 18 28 87 9z m359 -30 c0 -24 -1 -25 -67 -28 -47 -2 -37 46
12 56 35 7 55 -3 55 -28z m-225 18 c6 -4 11 -16 10 -27 0 -17 -7 -20 -45 -20
-42 0 -45 2 -48 28 -3 25 -1 27 35 27 21 0 43 -4 48 -8z m95 -12 c0 -22 -14
-40 -32 -40 -14 0 -18 6 -16 23 2 12 7 25 12 29 11 7 36 -1 36 -12z m1989
-515 c61 -21 137 -89 162 -145 14 -31 16 -155 15 -1090 -1 -1003 -2 -1057 -19
-1092 -11 -20 -26 -43 -34 -50 -13 -10 -143 -13 -627 -14 -336 0 -627 -4 -646
-8 -42 -10 -78 -33 -103 -63 l-18 -23 -779 0 -778 0 -16 25 c-16 25 -60 52
-99 62 -12 3 -302 6 -644 7 -608 1 -623 1 -642 21 -47 48 -46 38 -46 1141 1
571 5 1054 9 1072 4 17 12 32 17 32 5 0 9 7 9 15 0 7 20 31 45 52 47 39 93 60
154 72 19 3 924 6 2010 5 1891 0 1978 -1 2030 -19z"/>
<path d="M2162 2564 c-27 -18 -28 -54 -4 -84 17 -21 42 -24 202 -19 8 0 184 0
390 0 206 -1 380 -1 385 -1 6 0 721 0 1590 0 1757 0 1625 -5 1625 66 0 28 -5
36 -26 44 -16 6 -770 10 -2082 10 -1846 0 -2060 -2 -2080 -16z"/>
<path d="M2626 2102 c-57 -7 -105 -50 -106 -94 0 -26 46 -76 73 -79 116 -15
184 16 192 86 6 48 -82 96 -159 87z"/>
<path d="M2948 2097 c-47 -11 -88 -49 -88 -80 0 -32 33 -73 68 -85 42 -14 123
-8 154 12 38 25 52 71 31 102 -31 48 -94 68 -165 51z"/>
<path d="M3273 2090 c-79 -35 -86 -111 -14 -149 107 -58 249 20 201 110 -26
47 -122 67 -187 39z"/>
<path d="M3648 2100 c-53 -15 -88 -49 -88 -84 0 -54 55 -94 130 -93 80 0 140
47 132 101 -4 25 -47 65 -76 71 -47 11 -72 12 -98 5z"/>
<path d="M3962 2090 c-77 -35 -85 -111 -15 -149 103 -54 250 17 207 101 -29
56 -122 79 -192 48z"/>
<path d="M4345 2100 c-67 -15 -107 -54 -99 -97 6 -30 20 -45 59 -65 85 -41
205 4 205 77 0 54 -93 102 -165 85z"/>
<path d="M4690 2096 c-52 -16 -76 -37 -84 -73 -6 -27 -3 -36 24 -62 34 -32 91
-47 143 -37 36 6 84 41 92 67 22 70 -84 134 -175 105z"/>
<path d="M5030 2098 c-99 -26 -116 -114 -31 -158 90 -45 223 6 207 80 -13 63
-95 99 -176 78z"/>
<path d="M5405 2103 c-52 -9 -64 -14 -88 -39 -67 -67 0 -145 119 -140 70 3
113 36 119 91 5 45 -86 99 -150 88z"/>
<path d="M5724 2098 c-143 -29 -112 -175 36 -175 47 0 117 28 126 52 18 45 8
75 -31 101 -36 23 -84 31 -131 22z"/>
<path d="M2237 1668 c-58 -29 -73 -76 -38 -116 59 -69 210 -57 241 18 34 82
-105 149 -203 98z"/>
<path d="M2631 1676 c-75 -27 -94 -97 -38 -140 32 -25 67 -31 141 -28 40 3 95
62 89 96 -7 33 -40 62 -88 75 -49 13 -60 13 -104 -3z"/>
<path d="M2971 1676 c-43 -15 -79 -60 -73 -91 8 -44 71 -82 130 -79 17 1 41 2
53 3 12 0 36 16 54 34 26 26 33 40 28 58 -17 68 -108 104 -192 75z"/>
<path d="M3315 1675 c-36 -13 -44 -20 -65 -57 -14 -24 6 -71 40 -91 43 -26
108 -28 157 -7 140 61 17 205 -132 155z"/>
<path d="M3665 1673 c-38 -13 -71 -47 -69 -70 1 -7 2 -21 3 -30 1 -10 17 -28
35 -41 111 -76 287 21 203 111 -21 23 -82 46 -117 44 -9 0 -33 -6 -55 -14z"/>
<path d="M4000 1672 c-18 -9 -42 -28 -52 -42 -51 -70 60 -148 168 -118 95 26
112 112 31 154 -45 24 -107 26 -147 6z"/>
<path d="M4361 1678 c-64 -18 -93 -67 -67 -116 24 -47 114 -72 181 -49 31 11
75 54 75 74 0 71 -94 117 -189 91z"/>
<path d="M4701 1669 c-102 -45 -63 -153 59 -163 42 -4 95 10 116 29 91 85 -48
191 -175 134z"/>
<path d="M5038 1670 c-102 -54 -54 -163 71 -163 128 -1 184 104 84 158 -46 25
-114 27 -155 5z"/>
<path d="M5405 1678 c-82 -28 -101 -97 -40 -144 33 -25 65 -31 141 -25 25 1
91 60 88 79 -1 6 -2 19 -3 26 0 8 -16 27 -35 41 -38 29 -104 39 -151 23z"/>
<path d="M5740 1673 c-19 -7 -42 -21 -52 -30 -21 -18 -23 -71 -5 -93 33 -41
115 -56 181 -34 47 17 65 39 66 80 0 67 -109 111 -190 77z"/>
<path d="M6091 1669 c-136 -60 -23 -198 129 -156 80 22 98 110 31 150 -44 26
-111 28 -160 6z"/>
<path d="M2645 1223 c-99 -33 -100 -125 -2 -162 89 -34 200 21 189 93 -11 62
-106 97 -187 69z"/>
<path d="M3005 1230 c-64 -14 -95 -44 -95 -93 0 -44 70 -87 142 -87 64 0 136
65 121 109 -20 54 -97 87 -168 71z"/>
<path d="M3334 1224 c-57 -20 -80 -50 -75 -101 2 -24 56 -63 96 -69 91 -13
186 46 165 102 -24 62 -111 94 -186 68z"/>
<path d="M3686 1225 c-71 -25 -94 -62 -69 -113 15 -31 44 -48 98 -58 98 -18
182 56 145 127 -23 42 -112 65 -174 44z"/>
<path d="M4024 1224 c-76 -26 -101 -84 -57 -129 33 -33 86 -49 136 -41 84 14
126 61 100 113 -27 56 -107 82 -179 57z"/>
<path d="M4395 1232 c-79 -17 -123 -77 -92 -126 49 -74 207 -70 248 6 35 65
-63 140 -156 120z"/>
<path d="M4755 1232 c-35 -6 -83 -35 -96 -58 -46 -87 120 -163 214 -98 39 26
39 27 40 59 0 40 -4 50 -28 68 -26 19 -97 35 -130 29z"/>
<path d="M5077 1227 c-48 -15 -87 -52 -87 -83 0 -51 67 -94 145 -94 44 0 107
40 118 74 23 69 -83 131 -176 103z"/>
<path d="M5433 1229 c-47 -9 -79 -34 -91 -68 -9 -25 -7 -34 10 -57 25 -31 75
-54 120 -54 43 0 115 36 125 63 11 33 10 40 -6 65 -27 44 -94 65 -158 51z"/>
<path d="M5815 1234 c-5 -1 -26 -5 -46 -8 -78 -13 -115 -88 -66 -134 65 -61
189 -51 230 18 16 27 16 32 2 59 -19 38 -86 74 -120 65z"/>
<path d="M2596 835 c-45 -16 -76 -49 -76 -83 0 -30 50 -78 91 -87 67 -15 149
17 169 65 11 28 11 34 -7 58 -37 51 -110 70 -177 47z"/>
<path d="M2934 834 c-71 -24 -93 -77 -53 -127 49 -63 192 -55 232 13 46 78
-69 152 -179 114z"/>
<path d="M3299 842 c-40 -5 -91 -53 -91 -85 0 -55 61 -96 137 -93 54 3 81 13
107 43 62 70 -29 151 -153 135z"/>
<path d="M3635 837 c-127 -41 -91 -167 49 -172 99 -4 168 62 128 123 -30 47
-113 70 -177 49z"/>
<path d="M3998 840 c-15 -5 -29 -6 -31 -4 -2 3 -18 -9 -36 -25 -44 -41 -43
-81 5 -118 99 -75 270 2 213 96 -27 44 -94 66 -151 51z"/>
<path d="M4330 838 c-69 -19 -98 -63 -75 -112 35 -73 174 -86 234 -22 19 20
22 31 17 61 -6 33 -39 66 -70 71 -59 9 -76 10 -106 2z"/>
<path d="M4658 826 c-40 -21 -62 -58 -52 -89 34 -106 265 -90 264 18 -1 71
-130 115 -212 71z"/>
<path d="M5019 837 c-45 -12 -83 -63 -74 -100 11 -41 60 -70 124 -71 64 -1
106 17 129 55 43 73 -68 145 -179 116z"/>
<path d="M5374 838 c-43 -11 -84 -52 -84 -84 0 -33 49 -80 92 -88 75 -13 148
15 168 64 11 28 11 34 -7 58 -35 48 -102 68 -169 50z"/>
<path d="M5714 838 c-42 -11 -84 -52 -84 -81 0 -82 132 -122 222 -69 25 14 45
51 43 77 -3 52 -105 94 -181 73z"/>
<path d="M2423 410 c-40 -16 -42 -79 -3 -100 13 -7 479 -10 1412 -10 766 1
1400 1 1408 1 8 0 202 0 431 -1 228 -1 422 0 430 2 8 2 23 16 33 31 19 28 19
29 -1 55 l-20 27 -1834 2 c-1009 1 -1844 -3 -1856 -7z"/>
</g>
</svg>
